<svg width="10" height="11" viewBox="0 0 10 11" fill="none" xmlns="http://www.w3.org/2000/svg">
<path d="M8.33333 1.75H1.66667C1.55616 1.75 1.45018 1.7939 1.37204 1.87204C1.2939 1.95018 1.25 2.05616 1.25 2.16667V3.09458L1.25333 3.1875C1.27409 3.46572 1.38732 3.72899 1.575 3.93542L3.33333 5.86917V9.25C3.33332 9.31602 3.34899 9.3811 3.37906 9.43988C3.40913 9.49865 3.45274 9.54944 3.50629 9.58806C3.55984 9.62668 3.6218 9.65201 3.68706 9.66199C3.75233 9.67196 3.81903 9.66628 3.88167 9.64542L6.38167 8.81208L6.42667 8.79417C6.49842 8.76057 6.55911 8.70722 6.60162 8.64036C6.64413 8.57349 6.66669 8.4959 6.66667 8.41667V5.6725L8.38375 3.95583C8.49993 3.83969 8.59208 3.70178 8.65492 3.55C8.71777 3.39821 8.75007 3.23553 8.75 3.07125V2.16667C8.75 2.05616 8.7061 1.95018 8.62796 1.87204C8.54982 1.7939 8.44384 1.75 8.33333 1.75Z" fill="black"/>
</svg>
