<svg width="30" height="30" viewBox="0 0 30 30" fill="none" xmlns="http://www.w3.org/2000/svg">
<g id="tabler:photo-filled">
<path id="Vector" d="M11.0162 14.515C11.5875 14.04 12.1638 14.04 12.7488 14.5288L12.8837 14.6512L19.1163 20.8838L19.2337 20.9875C19.4743 21.1739 19.7745 21.2662 20.0782 21.2471C20.382 21.2279 20.6682 21.0986 20.8834 20.8834C21.0986 20.6682 21.2279 20.382 21.2471 20.0782C21.2662 19.7745 21.1739 19.4743 20.9875 19.2337L20.8838 19.1163L19.2687 17.5L19.6337 17.1337L19.7663 17.015C20.3375 16.54 20.9137 16.54 21.4987 17.0288L21.6337 17.1512L27.4763 22.995C27.3579 24.1853 26.8167 25.2938 25.9509 26.1192C25.0852 26.9447 23.9521 27.4323 22.7575 27.4938L22.5 27.5H7.5C6.25989 27.4999 5.06405 27.039 4.1447 26.2067C3.22534 25.3745 2.64808 24.2302 2.525 22.9963L10.8837 14.6337L11.0162 14.515ZM22.5 2.5C23.7828 2.5 25.0165 2.99304 25.946 3.87715C26.8755 4.76127 27.4296 5.9688 27.4938 7.25L27.5 7.5V19.4813L23.3838 15.3663L23.1962 15.195C21.6262 13.8263 19.6338 13.8237 18.0763 15.1737L17.8837 15.3488L17.5 15.7312L14.6337 12.8663L14.4462 12.695C12.8763 11.3263 10.8837 11.3237 9.32625 12.6737L9.13375 12.8488L2.5 19.4813V7.5C2.5 6.2172 2.99304 4.98346 3.87715 4.05399C4.76127 3.12451 5.9688 2.57039 7.25 2.50625L7.5 2.5H22.5ZM18.7625 8.75L18.6038 8.75875C18.2999 8.79489 18.0199 8.94119 17.8168 9.16996C17.6136 9.39872 17.5014 9.69405 17.5014 10C17.5014 10.306 17.6136 10.6013 17.8168 10.83C18.0199 11.0588 18.2999 11.2051 18.6038 11.2413L18.75 11.25L18.9088 11.2413C19.2126 11.2051 19.4926 11.0588 19.6957 10.83C19.8989 10.6013 20.0111 10.306 20.0111 10C20.0111 9.69405 19.8989 9.39872 19.6957 9.16996C19.4926 8.94119 19.2126 8.79489 18.9088 8.75875L18.7625 8.75Z" fill="#052E1C"/>
</g>
</svg>
