<svg width="1200" height="102" viewBox="0 0 1200 102" fill="none" xmlns="http://www.w3.org/2000/svg">
<path fill-rule="evenodd" clip-rule="evenodd" d="M53.2648 34.275H20.7458V86.8338H0V17.1615H53.2648V34.275ZM62.5812 17.1615H97.1196C104.636 17.1615 110.27 19.0116 114.014 22.7246C117.755 26.4239 119.634 31.7117 119.634 38.5422C119.634 45.5821 117.599 51.0808 113.512 55.0384C109.426 58.9978 103.194 60.9767 94.8175 60.9767H83.4512V86.8338H62.5812V17.1615ZM83.4512 46.8629H88.5392C92.5482 46.8629 95.3498 46.1499 96.9784 44.7062C98.5913 43.2622 99.4048 41.4132 99.4048 39.1744C99.4048 36.9846 98.7009 35.1181 97.2916 33.6101C95.8992 32.0853 93.2521 31.3232 89.3699 31.3232H83.4512V46.8629ZM171.882 75.3325H148.209L144.951 86.8338H123.721L148.991 17.1615H171.647L196.932 86.8338H175.186L171.882 75.3325ZM167.528 60.2622L160.092 35.2165L152.702 60.2622H167.528ZM298.075 86.8338H274.667L266.605 68.8266C264.679 64.5773 263.176 61.9169 262.111 60.8617C261.03 59.7927 259.559 59.2728 257.665 59.2728V86.8338H236.92V59.2728C234.993 59.2728 233.506 59.7927 232.425 60.8617C231.361 61.9169 229.873 64.5773 227.979 68.8266L219.901 86.8338H196.509L205.637 67.7728C208.142 62.4846 210.522 58.5912 212.776 56.1089C215.014 53.6275 217.614 51.8909 220.542 50.9027C218.381 49.994 216.643 48.7613 215.359 47.2201C214.076 45.6792 212.902 43.3595 211.806 40.2296C210.726 37.1148 209.332 34.8596 207.609 33.465C205.903 32.0689 203.272 31.3724 199.719 31.3724H198.67V16.6428C206.31 16.6428 211.93 17.048 215.501 17.8759C219.086 18.7026 221.653 20.0492 223.236 21.9473C224.801 23.8278 226.382 26.9426 227.979 31.2738C230.092 37.1464 231.643 40.6825 232.66 41.9156C233.661 43.1651 235.088 43.8303 236.92 43.9111V17.1615H257.665V43.9111C259.465 43.8303 260.874 43.1651 261.877 41.9156C262.894 40.6825 264.459 37.1464 266.605 31.2738C268.154 26.9426 269.736 23.8278 271.333 21.9473C272.914 20.0492 275.497 18.7026 279.083 17.8759C282.653 17.048 288.274 16.6428 295.914 16.6428V31.3724H294.865C291.311 31.3724 288.681 32.0689 286.974 33.465C285.252 34.8596 283.844 37.1148 282.746 40.2296C281.651 43.3595 280.461 45.6792 279.193 47.2201C277.925 48.7613 276.202 49.994 274.025 50.9027C277.001 51.9251 279.6 53.6769 281.838 56.158C284.063 58.6406 286.426 62.5162 288.946 67.7728L298.075 86.8338ZM376.139 102H359.402V86.8338H316.472V102H299.765V70.7741H306.701C310.585 59.5165 312.527 46.8313 312.527 32.7026V17.1615H368.89V70.7741H376.139V102ZM348.114 70.7741V34.275H331.423V35.1674C331.423 44.8033 329.842 56.6779 326.696 70.7741H348.114ZM425.678 75.3325H402.005L398.748 86.8338H377.518L402.788 17.1615H425.443L450.729 86.8338H428.982L425.678 75.3325ZM421.326 60.2622L413.888 35.2165L406.499 60.2622H421.326ZM457.461 17.1615H478.238V41.542H500.956V17.1615H521.826V86.8338H500.956V58.6555H478.238V86.8338H457.461V17.1615ZM600.031 86.8338H579.301V34.275H556.459V86.8338H535.714V17.1615H600.031V86.8338ZM613.794 17.1615H648.333C655.848 17.1615 661.484 19.0116 665.227 22.7246C668.968 26.4239 670.847 31.7117 670.847 38.5422C670.847 45.5821 668.812 51.0808 664.725 55.0384C660.639 58.9978 654.408 60.9767 646.03 60.9767H634.664V86.8338H613.794V17.1615ZM634.664 46.8629H639.752C643.761 46.8629 646.563 46.1499 648.191 44.7062C649.804 43.2622 650.618 41.4132 650.618 39.1744C650.618 36.9846 649.914 35.1181 648.504 33.6101C647.112 32.0853 644.465 31.3232 640.583 31.3232H634.664V46.8629ZM679.099 52.0387C679.099 40.6661 682.167 31.8103 688.274 25.4836C694.395 19.1403 702.913 15.9778 713.825 15.9778C725.02 15.9778 733.648 19.0926 739.705 25.3207C745.75 31.5338 748.786 40.2612 748.786 51.4708C748.786 59.6136 747.456 66.296 744.81 71.5034C742.165 76.7107 738.344 80.7669 733.35 83.6696C728.339 86.5737 722.123 88.0175 714.656 88.0175C707.077 88.0175 700.798 86.7681 695.82 84.2706C690.856 81.7564 686.833 77.7973 683.734 72.3804C680.648 66.9613 679.099 60.1815 679.099 52.0387ZM699.891 52.1346C699.891 59.1756 701.143 64.2201 703.664 67.3033C706.185 70.3689 709.63 71.9098 713.966 71.9098C718.428 71.9098 721.888 70.4005 724.331 67.3992C726.774 64.3827 728.01 58.98 728.01 51.1944C728.01 44.6252 726.726 39.8396 724.174 36.8068C721.622 33.788 718.162 32.2811 713.779 32.2811C709.598 32.2811 706.231 33.8055 703.695 36.8875C701.159 39.9531 699.891 45.0467 699.891 52.1346ZM759.747 17.1615H787.083L797.636 59.5493L808.142 17.1615H835.385V86.8338H818.413V33.7072L805.245 86.8338H789.886L776.765 33.7072V86.8338H759.747V17.1615ZM893.409 58.3642L911.618 64.075C910.396 69.3631 908.471 73.7739 905.84 77.3278C903.21 80.8805 899.938 83.5562 896.039 85.3571C892.141 87.1745 887.177 88.0655 881.166 88.0655C873.854 88.0655 867.874 86.9626 863.253 84.7729C858.62 82.5668 854.612 78.6895 851.245 73.1416C847.894 67.5934 846.203 60.5059 846.203 51.8593C846.203 40.3256 849.163 31.4531 855.081 25.2727C861 19.076 869.376 15.9778 880.194 15.9778C888.665 15.9778 895.319 17.746 900.172 21.2984C905.027 24.8499 908.627 30.3008 910.976 37.6499L892.626 41.884C891.984 39.7589 891.312 38.2013 890.606 37.2108C889.448 35.5737 888.023 34.3078 886.348 33.4155C884.657 32.5232 882.777 32.0854 880.696 32.0854C875.999 32.0854 872.382 34.0492 869.878 37.9744C867.982 40.8946 867.027 45.4683 867.027 51.7142C867.027 59.4507 868.171 64.74 870.425 67.6113C872.695 70.4824 875.873 71.9098 879.96 71.9098C883.937 71.9098 886.943 70.7578 888.978 68.4379C891.013 66.1346 892.486 62.7776 893.409 58.3642ZM916.988 17.1615H980.147V34.3721H958.948V86.8338H938.172V34.3721H916.988V17.1615ZM989.463 17.1615H1024C1031.52 17.1615 1037.15 19.0116 1040.9 22.7246C1044.64 26.4239 1046.52 31.7117 1046.52 38.5422C1046.52 45.5821 1044.48 51.0808 1040.4 55.0384C1036.31 58.9978 1030.08 60.9767 1021.7 60.9767H1010.33V86.8338H989.463V17.1615ZM1010.33 46.8629H1015.42C1019.43 46.8629 1022.23 46.1499 1023.86 44.7062C1025.47 43.2622 1026.29 41.4132 1026.29 39.1744C1026.29 36.9846 1025.58 35.1181 1024.17 33.6101C1022.78 32.0853 1020.14 31.3232 1016.25 31.3232H1010.33V46.8629ZM1054.77 52.0387C1054.77 40.6661 1057.84 31.8103 1063.94 25.4836C1070.07 19.1403 1078.58 15.9778 1089.5 15.9778C1100.69 15.9778 1109.32 19.0926 1115.38 25.3207C1121.42 31.5338 1124.46 40.2612 1124.46 51.4708C1124.46 59.6136 1123.13 66.296 1120.48 71.5034C1117.83 76.7107 1114.01 80.7669 1109.02 83.6696C1104.01 86.5737 1097.79 88.0175 1090.33 88.0175C1082.75 88.0175 1076.47 86.7681 1071.49 84.2706C1066.53 81.7564 1062.5 77.7973 1059.4 72.3804C1056.32 66.9613 1054.77 60.1815 1054.77 52.0387ZM1075.56 52.1346C1075.56 59.1756 1076.81 64.2201 1079.33 67.3033C1081.85 70.3689 1085.3 71.9098 1089.64 71.9098C1094.1 71.9098 1097.56 70.4005 1100 67.3992C1102.44 64.3827 1103.68 58.98 1103.68 51.1944C1103.68 44.6252 1102.4 39.8396 1099.84 36.8068C1097.29 33.788 1093.83 32.2811 1089.45 32.2811C1085.27 32.2811 1081.9 33.8055 1079.37 36.8875C1076.83 39.9531 1075.56 45.0467 1075.56 52.1346ZM1200 17.1615V86.8338H1180.46V48.5819L1155.27 86.8338H1135.68V17.1615H1155.27V55.7037L1180.6 17.1615H1200ZM1184.77 0C1184.12 4.00588 1182.26 7.21772 1179.19 9.68391C1176.12 12.1323 1172.46 13.3653 1168.22 13.3653C1163.99 13.3653 1160.34 12.1323 1157.24 9.65088C1154.16 7.18498 1152.31 3.97428 1151.7 0H1159.69C1160.97 3.97428 1163.74 5.95187 1168.03 5.95187C1172.62 5.95187 1175.53 3.97428 1176.78 0H1184.77Z" fill="white"/>
</svg>
