<svg width="240" height="40" viewBox="0 0 240 40" fill="none" xmlns="http://www.w3.org/2000/svg">
<path fill-rule="evenodd" clip-rule="evenodd" d="M224.667 8.56543H231.635V15.5333H224.667V8.56543Z" fill="#FFEC00"/>
<path fill-rule="evenodd" clip-rule="evenodd" d="M9.15893 10.2301H3.92081V18.4015H0.579102V7.56947H9.15893V10.2301ZM10.6596 7.56947H16.223C17.4337 7.56947 18.3413 7.85711 18.9443 8.43438C19.5469 9.00951 19.8496 9.83161 19.8496 10.8935C19.8496 11.988 19.5218 12.8429 18.8635 13.4582C18.2054 14.0738 17.2015 14.3814 15.8522 14.3814H14.0213V18.4015H10.6596V7.56947ZM14.0213 12.1872H14.8409C15.4866 12.1872 15.9379 12.0763 16.2003 11.8519C16.4601 11.6274 16.5911 11.3399 16.5911 10.9918C16.5911 10.6514 16.4777 10.3612 16.2507 10.1267C16.0264 9.88969 15.6 9.7712 14.9747 9.7712H14.0213V12.1872ZM28.2656 16.6134H24.4524L23.9276 18.4015H20.5079L24.5784 7.56947H28.2278L32.3006 18.4015H28.7978L28.2656 16.6134ZM27.5644 14.2704L26.3665 10.3765L25.1761 14.2704H27.5644ZM48.5926 18.4015H44.8221L43.5234 15.6019C43.2132 14.9412 42.9711 14.5276 42.7996 14.3636C42.6256 14.1974 42.3885 14.1165 42.0834 14.1165V18.4015H38.7419V14.1165C38.4314 14.1165 38.1919 14.1974 38.0179 14.3636C37.8464 14.5276 37.6068 14.9412 37.3017 15.6019L36.0004 18.4015H32.2325L33.7029 15.438C34.1064 14.6159 34.4897 14.0106 34.8527 13.6247C35.2134 13.2389 35.6321 12.9689 36.1038 12.8152C35.7557 12.674 35.4757 12.4823 35.2689 12.2427C35.0623 12.0031 34.8731 11.6425 34.6965 11.1559C34.5225 10.6716 34.298 10.321 34.0206 10.1042C33.7457 9.88714 33.3219 9.77885 32.7495 9.77885H32.5806V7.48883C33.8112 7.48883 34.7166 7.55183 35.2917 7.68054C35.8691 7.80908 36.2827 8.01843 36.5376 8.31352C36.7897 8.60589 37.0444 9.09015 37.3017 9.76352C37.6421 10.6765 37.8919 11.2263 38.0557 11.418C38.217 11.6123 38.4468 11.7157 38.7419 11.7282V7.56947H42.0834V11.7282C42.3734 11.7157 42.6004 11.6123 42.7619 11.418C42.9257 11.2263 43.1779 10.6765 43.5234 9.76352C43.773 9.09015 44.0279 8.60589 44.2851 8.31352C44.5398 8.01843 44.9558 7.80908 45.5334 7.68054C46.1085 7.55183 47.0139 7.48883 48.2445 7.48883V9.77885H48.0756C47.503 9.77885 47.0794 9.88714 46.8045 10.1042C46.5271 10.321 46.3002 10.6716 46.1235 11.1559C45.947 11.6425 45.7554 12.0031 45.5511 12.2427C45.3468 12.4823 45.0694 12.674 44.7188 12.8152C45.1981 12.9742 45.6166 13.2465 45.9773 13.6323C46.3355 14.0183 46.7162 14.6208 47.1222 15.438L48.5926 18.4015ZM61.1671 20.7594H58.4712V18.4015H51.556V20.7594H48.8649V15.9047H49.9822C50.6077 14.1544 50.9205 12.1823 50.9205 9.98566V7.56947H59.9995V15.9047H61.1671V20.7594ZM56.6529 15.9047V10.2301H53.9643V10.3689C53.9643 11.867 53.7097 13.7131 53.2028 15.9047H56.6529ZM69.1468 16.6134H65.3335L64.8089 18.4015H61.3893L65.4597 7.56947H69.1089L73.1819 18.4015H69.6789L69.1468 16.6134ZM68.4457 14.2704L67.2476 10.3765L66.0574 14.2704H68.4457ZM74.2664 7.56947H77.613V11.3599H81.2724V7.56947H84.6341V18.4015H81.2724V14.0206H77.613V18.4015H74.2664V7.56947ZM97.2314 18.4015H93.8922V10.2301H90.2129V18.4015H86.8711V7.56947H97.2314V18.4015ZM99.4482 7.56947H105.012C106.222 7.56947 107.13 7.85711 107.733 8.43438C108.336 9.00951 108.638 9.83161 108.638 10.8935C108.638 11.988 108.31 12.8429 107.652 13.4582C106.994 14.0738 105.99 14.3814 104.641 14.3814H102.81V18.4015H99.4482V7.56947ZM102.81 12.1872H103.63C104.275 12.1872 104.727 12.0763 104.989 11.8519C105.249 11.6274 105.38 11.3399 105.38 10.9918C105.38 10.6514 105.266 10.3612 105.039 10.1267C104.815 9.88969 104.389 9.7712 103.763 9.7712H102.81V12.1872ZM109.967 12.9918C109.967 11.2238 110.462 9.84693 111.445 8.86332C112.431 7.87712 113.803 7.38545 115.561 7.38545C117.364 7.38545 118.754 7.8697 119.73 8.83799C120.703 9.80395 121.193 11.1608 121.193 12.9036C121.193 14.1695 120.978 15.2084 120.552 16.018C120.126 16.8276 119.511 17.4582 118.706 17.9095C117.899 18.361 116.898 18.5855 115.695 18.5855C114.474 18.5855 113.463 18.3913 112.661 18.003C111.861 17.6121 111.213 16.9966 110.714 16.1544C110.217 15.3119 109.967 14.2578 109.967 12.9918ZM113.317 13.0068C113.317 14.1014 113.518 14.8857 113.924 15.3651C114.33 15.8417 114.885 16.0812 115.584 16.0812C116.303 16.0812 116.86 15.8466 117.253 15.38C117.647 14.911 117.846 14.071 117.846 12.8606C117.846 11.8393 117.639 11.0953 117.228 10.6237C116.817 10.1544 116.26 9.92012 115.554 9.92012C114.88 9.92012 114.338 10.1571 113.929 10.6363C113.521 11.1129 113.317 11.9048 113.317 13.0068ZM122.958 7.56947H127.361L129.061 14.1595L130.754 7.56947H135.142V18.4015H132.408V10.1418L130.287 18.4015H127.813L125.699 10.1418V18.4015H122.958V7.56947ZM144.488 13.9753L147.421 14.8631C147.225 15.6853 146.915 16.371 146.491 16.9236C146.067 17.4759 145.54 17.8919 144.912 18.1719C144.284 18.4544 143.484 18.593 142.516 18.593C141.338 18.593 140.375 18.4215 139.631 18.0811C138.884 17.7381 138.239 17.1353 137.697 16.2727C137.157 15.4102 136.884 14.3083 136.884 12.964C136.884 11.1708 137.361 9.79141 138.314 8.83053C139.268 7.86712 140.617 7.38545 142.36 7.38545C143.724 7.38545 144.796 7.66034 145.578 8.21264C146.36 8.7648 146.94 9.61225 147.318 10.7548L144.362 11.4131C144.259 11.0827 144.15 10.8406 144.037 10.6865C143.85 10.432 143.621 10.2352 143.351 10.0965C143.079 9.95778 142.776 9.8897 142.44 9.8897C141.684 9.8897 141.101 10.195 140.698 10.8053C140.393 11.2593 140.239 11.9704 140.239 12.9414C140.239 14.1442 140.423 14.9665 140.786 15.4129C141.152 15.8593 141.664 16.0812 142.322 16.0812C142.963 16.0812 143.447 15.9021 143.775 15.5414C144.102 15.1834 144.34 14.6614 144.488 13.9753ZM148.286 7.56947H158.46V10.2452H155.045V18.4015H151.699V10.2452H148.286V7.56947ZM159.961 7.56947H165.524C166.735 7.56947 167.643 7.85711 168.245 8.43438C168.848 9.00951 169.151 9.83161 169.151 10.8935C169.151 11.988 168.823 12.8429 168.165 13.4582C167.506 14.0738 166.503 14.3814 165.153 14.3814H163.322V18.4015H159.961V7.56947ZM163.322 12.1872H164.142C164.788 12.1872 165.239 12.0763 165.501 11.8519C165.761 11.6274 165.892 11.3399 165.892 10.9918C165.892 10.6514 165.779 10.3612 165.552 10.1267C165.327 9.88969 164.901 9.7712 164.276 9.7712H163.322V12.1872ZM170.48 12.9918C170.48 11.2238 170.974 9.84693 171.958 8.86332C172.944 7.87712 174.316 7.38545 176.074 7.38545C177.877 7.38545 179.266 7.8697 180.242 8.83799C181.216 9.80395 181.705 11.1608 181.705 12.9036C181.705 14.1695 181.491 15.2084 181.065 16.018C180.638 16.8276 180.023 17.4582 179.219 17.9095C178.412 18.361 177.41 18.5855 176.207 18.5855C174.987 18.5855 173.975 18.3913 173.173 18.003C172.374 17.6121 171.726 16.9966 171.226 16.1544C170.729 15.3119 170.48 14.2578 170.48 12.9918ZM173.829 13.0068C173.829 14.1014 174.031 14.8857 174.437 15.3651C174.843 15.8417 175.398 16.0812 176.096 16.0812C176.815 16.0812 177.372 15.8466 177.766 15.38C178.159 14.911 178.359 14.071 178.359 12.8606C178.359 11.8393 178.152 11.0953 177.741 10.6237C177.33 10.1544 176.772 9.92012 176.066 9.92012C175.393 9.92012 174.85 10.1571 174.442 10.6363C174.033 11.1129 173.829 11.9048 173.829 13.0068ZM193.874 7.56947V18.4015H190.726V12.4544L186.668 18.4015H183.513V7.56947H186.668V13.5616L190.749 7.56947H193.874ZM191.42 4.90137C191.316 5.52416 191.016 6.02351 190.522 6.40693C190.028 6.78758 189.438 6.97928 188.754 6.97928C188.073 6.97928 187.485 6.78758 186.986 6.4018C186.489 6.01842 186.192 5.51925 186.093 4.90137H187.38C187.586 5.51925 188.033 5.82671 188.724 5.82671C189.463 5.82671 189.932 5.51925 190.134 4.90137H191.42Z" fill="#14120D"/>
<path fill-rule="evenodd" clip-rule="evenodd" d="M0 23.2822H239.567V24.2314H0V23.2822Z" fill="#14120D"/>
<path fill-rule="evenodd" clip-rule="evenodd" d="M201.429 40.0003V2.88281H202.379V40.0003H201.429Z" fill="#14120D"/>
<path fill-rule="evenodd" clip-rule="evenodd" d="M197.088 7.46729H239.568V8.41657H197.088V7.46729Z" fill="#14120D"/>
<path fill-rule="evenodd" clip-rule="evenodd" d="M202.372 28.418H209.34V35.3859H202.372V28.418Z" fill="#004090"/>
<path fill-rule="evenodd" clip-rule="evenodd" d="M209.314 35.7722V5.46094H210.263V35.7722H209.314Z" fill="#14120D"/>
<path fill-rule="evenodd" clip-rule="evenodd" d="M210.307 16.4194H224.243V23.3872H210.307V16.4194Z" fill="#E30016"/>
<path fill-rule="evenodd" clip-rule="evenodd" d="M223.724 34.2575V0H224.673V34.2575H223.724Z" fill="#14120D"/>
<path fill-rule="evenodd" clip-rule="evenodd" d="M231.336 34.2575V0H232.285V34.2575H231.336Z" fill="#14120D"/>
<path fill-rule="evenodd" clip-rule="evenodd" d="M6.98486 27.4932H235.912V28.4424H6.98486V27.4932Z" fill="#14120D"/>
<path fill-rule="evenodd" clip-rule="evenodd" d="M196.885 15.6504H236.519V16.5996H196.885V15.6504Z" fill="#14120D"/>
</svg>
