<svg width="173" height="311" viewBox="0 0 173 311" fill="none" xmlns="http://www.w3.org/2000/svg">
<path d="M59.6626 276.41C59.6626 276.181 59.6626 275.952 59.6626 275.723H61.8209H144.859V266.644V31.5729H172.687V21.3482V0.763672H128.011V21.3482H109.275H106.631H38.485H35.8412H0.257324V31.5729V266.644V275.723H22.838H22.8649H25.0232V310.362C43.9614 310.551 59.4737 295.349 59.6626 276.41Z" fill="white"/>
<path d="M31.2523 224.166H8.53987C8.48646 224.166 8.44312 224.122 8.44312 224.069V201.517C8.44312 201.463 8.48646 201.42 8.53987 201.42H31.2523C31.3057 201.42 31.3491 201.463 31.3491 201.517V224.069C31.3491 224.122 31.3057 224.166 31.2523 224.166ZM8.63662 223.972H31.1556V201.613H8.63662V223.972Z" fill="black"/>
<path d="M31.2523 224.166C31.1989 224.166 31.1555 224.122 31.1555 224.069V201.517C31.1555 201.463 31.1989 201.42 31.2523 201.42C31.3057 201.42 31.349 201.463 31.349 201.517V224.069C31.349 224.122 31.3057 224.166 31.2523 224.166Z" fill="black"/>
<path d="M30.3055 224.166C30.2521 224.166 30.2087 224.122 30.2087 224.069V201.517C30.2087 201.463 30.2521 201.42 30.3055 201.42C30.3589 201.42 30.4022 201.463 30.4022 201.517V224.069C30.4022 224.122 30.3589 224.166 30.3055 224.166Z" fill="black"/>
<path d="M23.3031 263.902H8.53987C8.48646 263.902 8.44312 263.859 8.44312 263.806V233.523C8.44312 233.469 8.48646 233.426 8.53987 233.426H23.3031C23.3565 233.426 23.3999 233.469 23.3999 233.523V263.806C23.3999 263.859 23.3565 263.902 23.3031 263.902ZM8.63662 263.709H23.2064V233.619H8.63662V263.709Z" fill="black"/>
<path d="M23.303 263.902C23.2496 263.902 23.2063 263.859 23.2063 263.806V233.523C23.2063 233.469 23.2496 233.426 23.303 233.426C23.3565 233.426 23.3998 233.469 23.3998 233.523V263.806C23.3998 263.859 23.3565 263.902 23.303 263.902Z" fill="black"/>
<path d="M22.3563 263.902C22.3029 263.902 22.2595 263.859 22.2595 263.806V233.523C22.2595 233.469 22.3029 233.426 22.3563 233.426C22.4097 233.426 22.453 233.469 22.453 233.523V263.806C22.453 263.859 22.4097 263.902 22.3563 263.902Z" fill="black"/>
<path d="M127.304 88.6379H103.376C102.766 88.6379 102.269 88.1409 102.269 87.5301V50.9789C102.269 50.368 102.766 49.8711 103.376 49.8711H127.304C127.915 49.8711 128.412 50.368 128.412 50.9789V87.5299C128.412 88.1406 127.915 88.6377 127.304 88.6379ZM103.376 50.0646C102.872 50.0646 102.462 50.4748 102.462 50.9789V87.5301C102.462 88.0341 102.872 88.4444 103.376 88.4444H127.304C127.808 88.4442 128.218 88.0339 128.218 87.5299V50.9789C128.218 50.4748 127.808 50.0646 127.304 50.0646H103.376Z" fill="black"/>
<path d="M135.46 88.6379H129.326C128.715 88.6377 128.218 88.1406 128.218 87.5299V50.9789C128.218 50.368 128.715 49.8711 129.326 49.8711H135.46C136.071 49.8711 136.568 50.368 136.568 50.9789V87.5301C136.568 88.1409 136.071 88.6379 135.46 88.6379ZM129.326 50.0646C128.822 50.0646 128.412 50.4748 128.412 50.9789V87.5299C128.412 88.0339 128.822 88.4442 129.326 88.4444H135.46C135.964 88.4444 136.375 88.0341 136.375 87.5301V50.9789C136.375 50.4748 135.965 50.0646 135.46 50.0646H129.326Z" fill="black"/>
<path d="M127.304 127.212H103.376C102.765 127.212 102.268 126.715 102.268 126.104V89.5531C102.268 88.9422 102.765 88.4453 103.376 88.4453H127.304C127.304 88.4453 127.304 88.4453 127.304 88.4453C127.599 88.4453 127.877 88.5604 128.087 88.7698C128.296 88.9792 128.411 89.2572 128.411 89.5531V126.104C128.411 126.715 127.914 127.212 127.304 127.212ZM103.376 88.6388C102.872 88.6388 102.462 89.049 102.462 89.5531V126.104C102.462 126.608 102.872 127.019 103.376 127.019H127.304C127.808 127.019 128.218 126.608 128.218 126.104V89.5531C128.218 89.3089 128.123 89.0794 127.95 88.9066C127.777 88.7338 127.548 88.6388 127.304 88.6388C127.304 88.6388 127.304 88.6388 127.304 88.6388H103.376Z" fill="black"/>
<path d="M135.46 127.212H129.326C128.715 127.212 128.218 126.715 128.218 126.104V89.5531C128.218 89.2572 128.333 88.9792 128.543 88.7698C128.752 88.5604 129.03 88.4453 129.326 88.4453H129.326H135.46C136.071 88.4453 136.568 88.9422 136.568 89.5531V126.104C136.568 126.715 136.071 127.212 135.46 127.212ZM129.326 88.6388C129.082 88.6388 128.852 88.7338 128.68 88.9066C128.507 89.0794 128.412 89.3089 128.412 89.5531V126.104C128.412 126.608 128.822 127.019 129.326 127.019H135.46C135.964 127.019 136.375 126.608 136.375 126.104V89.5531C136.375 89.049 135.965 88.6388 135.46 88.6388H129.326H129.326Z" fill="black"/>
<path d="M12.5841 108.559H10.5618C10.5084 108.559 10.4651 108.515 10.4651 108.462V68.0186C10.4651 67.9652 10.5084 67.9219 10.5618 67.9219H12.5841C12.6375 67.9219 12.6809 67.9652 12.6809 68.0186V108.462C12.6809 108.515 12.6375 108.559 12.5841 108.559ZM10.6586 108.365H12.4874V68.1154H10.6586V108.365Z" fill="black"/>
<path d="M10.5616 108.559C10.5227 108.559 10.4868 108.536 10.4719 108.498L8.44958 103.443C8.44513 103.431 8.44263 103.419 8.44263 103.407V73.0741C8.44263 73.0619 8.44494 73.0498 8.44958 73.0381L10.4719 67.9828C10.4891 67.9396 10.5344 67.915 10.58 67.9236C10.6255 67.9323 10.6584 67.9721 10.6584 68.0186V108.462C10.6584 108.509 10.6255 108.548 10.58 108.557C10.5738 108.559 10.5676 108.559 10.5616 108.559ZM8.63613 103.388L10.4649 107.96V68.5211L8.63613 73.0927V103.388Z" fill="black"/>
<path d="M17.6396 118.669H8.53987C8.48646 118.669 8.44312 118.626 8.44312 118.573V57.9073C8.44312 57.8539 8.48646 57.8105 8.53987 57.8105H17.6396C17.693 57.8105 17.7363 57.8539 17.7363 57.9073V118.573C17.7363 118.626 17.693 118.669 17.6396 118.669ZM8.63662 118.476H17.5428V58.004H8.63662V118.476Z" fill="black"/>
<path d="M109.59 169.375C107.788 169.375 106.018 168.892 104.472 167.978C102.972 167.091 101.718 165.824 100.846 164.314C100.681 164.028 100.647 163.697 100.752 163.383C100.855 163.075 101.085 162.822 101.384 162.688C101.39 162.684 101.395 162.682 101.401 162.68C101.402 162.679 101.403 162.679 101.403 162.679C101.654 162.566 101.938 162.554 102.203 162.644C102.464 162.733 102.684 162.914 102.823 163.154C103.494 164.326 104.463 165.308 105.624 165.995C106.821 166.703 108.192 167.078 109.59 167.078C110.988 167.078 112.359 166.703 113.556 165.995C114.717 165.309 115.686 164.326 116.358 163.155C116.496 162.915 116.716 162.733 116.977 162.644C117.242 162.554 117.526 162.566 117.777 162.679C117.785 162.681 117.791 162.684 117.798 162.689C118.094 162.822 118.325 163.075 118.427 163.382C118.532 163.698 118.499 164.028 118.333 164.314C117.461 165.824 116.207 167.091 114.708 167.978C113.162 168.892 111.392 169.375 109.59 169.375ZM101.474 162.859C101.47 162.861 101.465 162.863 101.463 162.864C101.214 162.976 101.021 163.187 100.936 163.444C100.848 163.705 100.876 163.98 101.013 164.217C101.869 165.698 103.099 166.941 104.57 167.811C106.087 168.708 107.822 169.182 109.59 169.182C111.357 169.182 113.093 168.708 114.609 167.811C116.08 166.942 117.31 165.699 118.166 164.217C118.303 163.98 118.331 163.705 118.244 163.444C118.158 163.187 117.965 162.976 117.716 162.864C117.714 162.863 117.71 162.861 117.705 162.859C117.704 162.858 117.702 162.858 117.701 162.857C117.491 162.762 117.257 162.753 117.039 162.827C116.822 162.901 116.64 163.052 116.526 163.251C115.836 164.452 114.843 165.458 113.654 166.162C112.427 166.888 111.022 167.271 109.589 167.271C108.157 167.271 106.752 166.888 105.525 166.162C104.335 165.458 103.342 164.451 102.654 163.251C102.539 163.052 102.356 162.901 102.14 162.827C101.922 162.753 101.688 162.763 101.482 162.855L101.481 162.855C101.479 162.857 101.477 162.858 101.474 162.859Z" fill="black"/>
<path d="M84.6152 169.375C82.8132 169.375 81.0434 168.892 79.4975 167.978C77.9977 167.091 76.7439 165.824 75.8716 164.314C75.7059 164.028 75.6726 163.697 75.7777 163.383C75.8805 163.075 76.1105 162.822 76.4093 162.688C76.4149 162.684 76.4203 162.682 76.4261 162.68C76.4269 162.679 76.4277 162.679 76.4285 162.679C76.6792 162.566 76.9631 162.554 77.228 162.644C77.4888 162.733 77.7088 162.914 77.848 163.154C78.5194 164.326 79.4883 165.308 80.6497 165.995C81.8463 166.703 83.2176 167.078 84.6154 167.078C86.0131 167.078 87.3846 166.703 88.5812 165.995C89.7422 165.308 90.7115 164.326 91.3837 163.155C91.5217 162.915 91.7413 162.733 92.0025 162.644C92.2674 162.553 92.5515 162.566 92.8026 162.679C92.8104 162.681 92.8169 162.685 92.8239 162.689C93.12 162.822 93.3502 163.075 93.453 163.383C93.5578 163.698 93.5244 164.029 93.3589 164.314C92.4863 165.824 91.2326 167.091 89.7333 167.978C88.1871 168.892 86.4173 169.375 84.6152 169.375ZM76.4997 162.859C76.4952 162.861 76.4906 162.863 76.4884 162.864C76.239 162.976 76.0469 163.187 75.9611 163.444C75.8739 163.705 75.9016 163.98 76.0389 164.217C76.8946 165.698 78.1245 166.941 79.5958 167.811C81.1119 168.708 82.8476 169.182 84.615 169.182C86.3825 169.182 88.1182 168.708 89.6342 167.811C91.1052 166.941 92.3351 165.699 93.1912 164.217C93.3285 163.98 93.3562 163.705 93.2689 163.444C93.1834 163.187 92.9911 162.976 92.7417 162.864C92.7395 162.863 92.7349 162.861 92.7304 162.859C92.7268 162.857 92.7239 162.856 92.7223 162.855C92.5164 162.762 92.2827 162.753 92.0646 162.827C91.8479 162.901 91.6656 163.051 91.5511 163.251C90.862 164.451 89.8692 165.458 88.6793 166.162C87.4527 166.887 86.0471 167.271 84.6149 167.271C83.1824 167.271 81.777 166.887 80.5506 166.162C79.3606 165.457 78.3677 164.451 77.68 163.251C77.5645 163.051 77.3816 162.901 77.1653 162.827C76.9468 162.753 76.7131 162.763 76.507 162.855C76.5047 162.857 76.5022 162.858 76.4997 162.859ZM76.4077 162.691C76.4077 162.692 76.4075 162.692 76.4075 162.692C76.4075 162.692 76.4076 162.692 76.4077 162.691Z" fill="black"/>
<path d="M109.59 167.272C105.182 167.272 101.596 163.686 101.596 159.278C101.596 157.809 101.999 156.372 102.76 155.123C102.778 155.094 102.809 155.076 102.843 155.076L116.338 155.077C116.372 155.077 116.403 155.095 116.421 155.124C117.182 156.372 117.584 157.808 117.584 159.278C117.584 163.686 113.998 167.272 109.59 167.272ZM102.897 155.27C102.172 156.478 101.789 157.863 101.789 159.278C101.789 163.58 105.289 167.079 109.59 167.079C113.891 167.079 117.39 163.58 117.39 159.278C117.39 157.862 117.007 156.478 116.284 155.271L102.897 155.27Z" fill="black"/>
<path d="M109.59 169.377C105.99 169.377 102.644 167.433 100.857 164.305C100.649 163.942 100.65 163.51 100.859 163.151C101.064 162.797 101.431 162.586 101.84 162.586C102.247 162.586 102.619 162.81 102.836 163.184C104.228 165.587 106.817 167.079 109.59 167.079C112.363 167.079 114.951 165.587 116.344 163.184C116.562 162.81 116.934 162.586 117.34 162.586C117.749 162.586 118.116 162.797 118.321 163.15C118.529 163.51 118.53 163.942 118.323 164.305C116.536 167.433 113.19 169.377 109.59 169.377ZM101.84 162.779C101.501 162.779 101.197 162.954 101.026 163.248C100.853 163.547 100.852 163.906 101.025 164.209C102.778 167.277 106.059 169.183 109.59 169.183C113.121 169.183 116.403 167.277 118.155 164.209C118.328 163.907 118.327 163.547 118.153 163.248C117.983 162.954 117.679 162.779 117.34 162.779C117.004 162.779 116.694 162.967 116.512 163.281C115.084 165.743 112.432 167.273 109.59 167.273C106.748 167.273 104.096 165.743 102.668 163.281C102.487 162.967 102.177 162.779 101.84 162.779Z" fill="black"/>
<path d="M84.6155 167.272C80.2073 167.272 76.6212 163.686 76.6212 159.278C76.6212 157.809 77.0237 156.372 77.7849 155.123C77.8023 155.094 77.8337 155.076 77.8675 155.076L91.3634 155.077C91.3973 155.077 91.4284 155.095 91.446 155.124C92.2069 156.371 92.609 157.808 92.609 159.278C92.6088 163.686 89.023 167.272 84.6155 167.272ZM77.9221 155.27C77.1975 156.478 76.8147 157.863 76.8147 159.278C76.8147 163.58 80.3142 167.079 84.6155 167.079C88.9162 167.079 92.4153 163.58 92.4153 159.278C92.4153 157.862 92.0327 156.478 91.3086 155.271L77.9221 155.27Z" fill="black"/>
<path d="M84.6152 169.377C81.0153 169.377 77.6691 167.433 75.8823 164.305C75.6749 163.942 75.6757 163.51 75.8844 163.15C76.0896 162.797 76.4562 162.586 76.8651 162.586C77.2716 162.586 77.6443 162.809 77.8618 163.184C79.2539 165.587 81.8415 167.079 84.6152 167.079C87.3886 167.079 89.9767 165.587 91.3693 163.184C91.587 162.809 91.9593 162.586 92.365 162.586C92.7743 162.586 93.1412 162.797 93.3461 163.151C93.5549 163.51 93.5555 163.942 93.3478 164.305C91.5612 167.433 88.215 169.377 84.6152 169.377ZM76.8651 162.779C76.5259 162.779 76.2219 162.954 76.0516 163.248C75.8779 163.547 75.8773 163.906 76.0503 164.209C77.8026 167.277 81.0846 169.183 84.6152 169.183C88.1458 169.183 91.4277 167.277 93.1801 164.209C93.3532 163.907 93.3529 163.547 93.1789 163.248C93.0088 162.954 92.7046 162.779 92.3652 162.779C92.0291 162.779 91.7193 162.967 91.5369 163.281C90.1096 165.743 87.4575 167.273 84.6152 167.273C81.7728 167.273 79.1209 165.743 77.6944 163.281C77.512 162.967 77.202 162.779 76.8651 162.779Z" fill="black"/>
<path d="M116.338 155.272H102.842C102.788 155.272 102.745 155.228 102.745 155.175C102.745 155.121 102.788 155.078 102.842 155.078H116.338C116.391 155.078 116.434 155.121 116.434 155.175C116.434 155.228 116.391 155.272 116.338 155.272Z" fill="black"/>
<path d="M136.471 155.27H116.338C116.285 155.27 116.241 155.227 116.241 155.174C116.241 155.12 116.285 155.077 116.338 155.077H136.374V137.229H69.4657V155.077H102.842C102.896 155.077 102.939 155.12 102.939 155.174C102.939 155.227 102.896 155.27 102.842 155.27H69.369C69.3156 155.27 69.2722 155.227 69.2722 155.174V137.132C69.2722 137.079 69.3156 137.035 69.369 137.035H136.471C136.524 137.035 136.568 137.079 136.568 137.132V155.174C136.568 155.227 136.524 155.27 136.471 155.27Z" fill="black"/>
<path d="M31.2522 175.925H8.53974C8.48634 175.925 8.44299 175.882 8.44299 175.829V153.116C8.44299 153.063 8.48634 153.02 8.53974 153.02H31.2522C31.3056 153.02 31.3489 153.063 31.3489 153.116V175.829C31.3489 175.882 31.3056 175.925 31.2522 175.925ZM8.63649 175.732H31.1554V153.213H8.63649V175.732Z" fill="black"/>
<path d="M172.686 21.3496V31.5741H144.859H136.522H109.275V28.917V25.5178V21.3496H128.011H172.686Z" fill="#052E1C"/>
<path d="M144.858 266.645V275.723H61.8207V272.054V266.645H64.3025H67.6884H120.943H122.845H136.522H144.858Z" fill="#052E1C"/>
<path d="M144.859 31.5742V266.646H136.522V238.292V236.404V203.828V198.54V141.738V31.5742H144.859Z" fill="#052E1C"/>
<path d="M136.522 198.539V203.827H67.6884V198.539H91.0647H113.78H136.482H136.522Z" fill="#052E1C"/>
<path d="M64.3026 221.403V198.539H67.6885V203.827V206.12V221.403H66.6498H64.3026Z" fill="#052E1C"/>
<path d="M64.3026 251.766V251.686H66.6229H67.6885V266.645H64.3026V251.766Z" fill="#052E1C"/>
<path d="M35.8411 31.5741H8.57983H0.257202V21.3496H35.8411V25.5178V28.917V31.5741Z" fill="#052E1C"/>
<path d="M31.2549 198.539H31.7406V201.52H8.57996V198.539H31.2549Z" fill="#052E1C"/>
<path d="M22.8377 272.054V275.723H0.257202V266.645H8.57983H22.8377V272.054Z" fill="#052E1C"/>
<path d="M8.57983 141.738V175.825H8.53939V198.54V201.521H8.57983V266.646H0.257202V31.5742H8.57983V141.738Z" fill="#052E1C"/>
<path d="M109.275 21.3496H106.631V25.5176H109.275V21.3496Z" fill="#052E1C"/>
<path d="M38.485 21.3496H35.8412V25.5176H38.485V21.3496Z" fill="#052E1C"/>
<path d="M8.57987 198.539H8.53943V201.52H8.57987V198.539Z" fill="#052E1C"/>
<path d="M8.57987 175.824H8.53943V198.54H8.57987V175.824Z" fill="#052E1C"/>
<path d="M172.686 21.4456H128.011C127.958 21.4456 127.914 21.4023 127.914 21.3489V0.764719C127.914 0.711313 127.958 0.667969 128.011 0.667969H172.686C172.74 0.667969 172.783 0.711313 172.783 0.764719V21.3489C172.783 21.4023 172.74 21.4456 172.686 21.4456ZM128.108 21.2521H172.589V0.861469H128.108V21.2521Z" fill="#231F20"/>
<path d="M172.686 21.4457C172.673 21.4457 172.659 21.4428 172.646 21.4368L127.97 0.852634C127.922 0.830188 127.901 0.772718 127.923 0.724149C127.945 0.675581 128.003 0.654684 128.051 0.676743L172.727 21.2609C172.775 21.2833 172.796 21.3408 172.774 21.3894C172.758 21.4248 172.723 21.4457 172.686 21.4457Z" fill="#231F20"/>
<path d="M128.011 21.4458C127.975 21.4458 127.939 21.4249 127.923 21.3895C127.901 21.3409 127.922 21.2834 127.97 21.261L172.646 0.676826C172.694 0.654574 172.752 0.675664 172.774 0.724233C172.796 0.772801 172.775 0.830271 172.727 0.852717L128.051 21.4369C128.038 21.4429 128.025 21.4458 128.011 21.4458Z" fill="#231F20"/>
<path d="M25.0229 310.46C24.9695 310.46 24.9261 310.417 24.9261 310.363V275.724C24.9261 275.67 24.9695 275.627 25.0229 275.627C25.0763 275.627 25.1196 275.67 25.1196 275.724V310.363C25.1196 310.417 25.0763 310.46 25.0229 310.46Z" fill="#052E1C"/>
<path d="M25.37 310.462C25.2534 310.462 25.1388 310.461 25.0219 310.46C24.9685 310.46 24.9256 310.416 24.9262 310.363C24.9267 310.309 24.9637 310.261 25.0239 310.267C25.139 310.268 25.2553 310.268 25.3702 310.268C44.0722 310.268 59.379 295.152 59.5659 276.411V275.724C59.5659 275.67 59.6093 275.627 59.6627 275.627C59.7161 275.627 59.7594 275.67 59.7594 275.724V276.412C59.5714 295.259 44.1765 310.462 25.37 310.462Z" fill="#052E1C"/>
<path d="M25.023 275.82H22.8647C22.8113 275.82 22.7679 275.777 22.7679 275.724C22.7679 275.67 22.8113 275.627 22.8647 275.627H25.023C25.0764 275.627 25.1197 275.67 25.1197 275.724C25.1197 275.777 25.0764 275.82 25.023 275.82Z" fill="#052E1C"/>
<path d="M61.8208 275.82H59.6625C59.6091 275.82 59.5658 275.777 59.5658 275.724C59.5658 275.67 59.6091 275.627 59.6625 275.627H61.8208C61.8742 275.627 61.9176 275.67 61.9176 275.724C61.9176 275.777 61.8742 275.82 61.8208 275.82Z" fill="#052E1C"/>
<path d="M25.023 272.151H22.8647C22.8113 272.151 22.7679 272.107 22.7679 272.054C22.7679 272 22.8113 271.957 22.8647 271.957H25.023C25.0764 271.957 25.1197 272 25.1197 272.054C25.1197 272.107 25.0764 272.151 25.023 272.151Z" fill="#052E1C"/>
<path d="M61.8208 272.151H59.6625C59.6091 272.151 59.5658 272.107 59.5658 272.054C59.5658 272 59.6091 271.957 59.6625 271.957H61.8208C61.8742 271.957 61.9176 272 61.9176 272.054C61.9176 272.107 61.8742 272.151 61.8208 272.151Z" fill="#052E1C"/>
<path d="M59.6625 275.819C59.6091 275.819 59.5658 275.776 59.5658 275.723V272.054C59.5658 272 59.6091 271.957 59.6625 271.957C59.716 271.957 59.7593 272 59.7593 272.054V275.723C59.7593 275.776 59.7161 275.819 59.6625 275.819Z" fill="#052E1C"/>
<path d="M25.0229 275.819C24.9695 275.819 24.9261 275.776 24.9261 275.723V272.054C24.9261 272 24.9695 271.957 25.0229 271.957C25.0763 271.957 25.1196 272 25.1196 272.054V275.723C25.1196 275.776 25.0763 275.819 25.0229 275.819Z" fill="#052E1C"/>
<path d="M64.3026 250.178L37.3786 250.164C37.3252 250.164 37.2819 250.121 37.2819 250.067C37.2819 250.014 37.3252 249.971 37.3786 249.971L64.3024 249.984C64.3558 249.984 64.3991 250.028 64.3991 250.081C64.3991 250.134 64.356 250.178 64.3026 250.178Z" fill="#052E1C"/>
<path d="M37.3789 250.164C37.3254 250.164 37.2821 250.121 37.2821 250.068C37.2885 242.852 40.1039 236.07 45.2098 230.972C50.3099 225.878 57.0861 223.074 64.2908 223.074C64.2995 223.074 64.3075 223.074 64.3162 223.074C64.3696 223.074 64.4129 223.118 64.4129 223.171C64.4129 223.224 64.3696 223.268 64.3162 223.268C64.3079 223.268 64.2993 223.268 64.291 223.268C57.1373 223.268 50.4107 226.052 45.3468 231.109C40.2775 236.171 37.4822 242.904 37.4758 250.068C37.4756 250.121 37.4323 250.164 37.3789 250.164Z" fill="#052E1C"/>
<path d="M64.3026 251.864C64.2492 251.864 64.2058 251.821 64.2058 251.767V250.081C64.2058 250.028 64.2492 249.984 64.3026 249.984C64.356 249.984 64.3993 250.028 64.3993 250.081V251.767C64.3993 251.821 64.3562 251.864 64.3026 251.864Z" fill="#052E1C"/>
<path d="M64.3164 223.266C64.2629 223.266 64.2196 223.223 64.2196 223.17V221.483C64.2196 221.43 64.2629 221.387 64.3164 221.387C64.3698 221.387 64.4131 221.43 64.4131 221.483V223.17C64.4131 223.223 64.3698 223.266 64.3164 223.266Z" fill="#052E1C"/>
<path d="M66.6229 251.864C66.5695 251.864 66.5261 251.821 66.5261 251.767V250.081C66.5261 250.028 66.5695 249.984 66.6229 249.984C66.6763 249.984 66.7196 250.028 66.7196 250.081V251.767C66.7196 251.821 66.6763 251.864 66.6229 251.864Z" fill="#052E1C"/>
<path d="M66.6362 223.267C66.6362 223.267 66.6358 223.267 66.6354 223.267C66.582 223.266 66.5389 223.223 66.5394 223.169L66.553 221.483C66.5534 221.43 66.5971 221.383 66.6505 221.387C66.7039 221.387 66.7471 221.431 66.7465 221.485L66.7329 223.171C66.7324 223.224 66.6892 223.267 66.6362 223.267Z" fill="#052E1C"/>
<path d="M66.6364 223.268H64.3164C64.2629 223.268 64.2196 223.224 64.2196 223.171C64.2196 223.118 64.2629 223.074 64.3164 223.074H66.6364C66.6898 223.074 66.7332 223.118 66.7332 223.171C66.7332 223.224 66.6898 223.268 66.6364 223.268Z" fill="#052E1C"/>
<path d="M66.6228 250.178H64.3026C64.2492 250.178 64.2058 250.135 64.2058 250.081C64.2058 250.028 64.2492 249.984 64.3026 249.984H66.6228C66.6762 249.984 66.7196 250.028 66.7196 250.081C66.7196 250.135 66.6762 250.178 66.6228 250.178Z" fill="#052E1C"/>
<path d="M108.574 234.772C104.809 234.772 101.746 231.715 101.746 227.958C101.746 227.905 101.789 227.861 101.843 227.861C101.896 227.861 101.939 227.905 101.939 227.958C101.939 231.609 104.916 234.579 108.574 234.579C108.627 234.579 108.671 234.622 108.671 234.676C108.671 234.729 108.627 234.772 108.574 234.772Z" fill="#052E1C"/>
<path d="M125.367 212.596C124.577 212.596 123.935 211.948 123.935 211.151C123.935 210.361 124.577 209.719 125.367 209.719C126.164 209.719 126.813 210.361 126.813 211.151C126.813 211.948 126.164 212.596 125.367 212.596ZM125.367 209.912C124.684 209.912 124.128 210.468 124.128 211.151C124.128 211.841 124.684 212.403 125.367 212.403C126.057 212.403 126.619 211.841 126.619 211.151C126.619 210.468 126.058 209.912 125.367 209.912Z" fill="#052E1C"/>
<path d="M128.726 210.411C128.672 210.411 128.629 210.368 128.629 210.315C128.629 208.977 127.547 207.889 126.217 207.889C126.163 207.889 126.12 207.845 126.12 207.792C126.12 207.739 126.163 207.695 126.217 207.695C127.653 207.695 128.822 208.87 128.822 210.315C128.822 210.368 128.779 210.411 128.726 210.411Z" fill="#052E1C"/>
<path d="M126.217 234.773C126.163 234.773 126.12 234.729 126.12 234.676C126.12 234.622 126.163 234.579 126.217 234.579C127.547 234.579 128.629 233.491 128.629 232.153C128.629 232.1 128.672 232.057 128.726 232.057C128.779 232.057 128.822 232.1 128.822 232.153C128.822 233.598 127.653 234.773 126.217 234.773Z" fill="#052E1C"/>
<path d="M101.843 210.411C101.789 210.411 101.746 210.368 101.746 210.315C101.746 208.87 102.921 207.695 104.365 207.695C104.419 207.695 104.462 207.739 104.462 207.792C104.462 207.845 104.419 207.889 104.365 207.889C103.028 207.889 101.939 208.977 101.939 210.315C101.939 210.368 101.896 210.411 101.843 210.411Z" fill="#052E1C"/>
<path d="M126.217 207.889H104.365C104.312 207.889 104.268 207.845 104.268 207.792C104.268 207.739 104.312 207.695 104.365 207.695H126.217C126.271 207.695 126.314 207.739 126.314 207.792C126.314 207.845 126.271 207.889 126.217 207.889Z" fill="#052E1C"/>
<path d="M101.842 228.056C101.789 228.056 101.746 228.012 101.746 227.959V210.315C101.746 210.262 101.789 210.219 101.842 210.219C101.896 210.219 101.939 210.262 101.939 210.315V227.959C101.939 228.012 101.896 228.056 101.842 228.056Z" fill="#052E1C"/>
<path d="M126.217 234.774H108.573C108.52 234.774 108.476 234.73 108.476 234.677C108.476 234.623 108.52 234.58 108.573 234.58H126.217C126.27 234.58 126.313 234.623 126.313 234.677C126.313 234.73 126.27 234.774 126.217 234.774Z" fill="#052E1C"/>
<path d="M128.726 232.251C128.672 232.251 128.629 232.207 128.629 232.154V210.315C128.629 210.262 128.672 210.219 128.726 210.219C128.779 210.219 128.823 210.262 128.823 210.315V232.154C128.823 232.207 128.779 232.251 128.726 232.251Z" fill="#052E1C"/>
<path d="M100.17 228.056C100.116 228.056 100.073 228.012 100.073 227.959V206.12C100.073 206.067 100.116 206.023 100.17 206.023C100.223 206.023 100.267 206.067 100.267 206.12V227.959C100.267 228.012 100.223 228.056 100.17 228.056Z" fill="#052E1C"/>
<path d="M108.574 236.459C103.886 236.459 100.073 232.645 100.073 227.958C100.073 227.905 100.116 227.861 100.17 227.861C100.223 227.861 100.267 227.905 100.267 227.958C100.267 232.539 103.993 236.265 108.574 236.265C108.627 236.265 108.671 236.308 108.671 236.362C108.671 236.415 108.627 236.459 108.574 236.459Z" fill="#052E1C"/>
<path d="M130.412 236.459H108.574C108.52 236.459 108.477 236.416 108.477 236.362C108.477 236.309 108.52 236.266 108.574 236.266H130.412C130.465 236.266 130.509 236.309 130.509 236.362C130.509 236.416 130.465 236.459 130.412 236.459Z" fill="#052E1C"/>
<path d="M114.009 245.834H106.86C106.807 245.834 106.763 245.791 106.763 245.737C106.763 245.684 106.807 245.641 106.86 245.641H114.009C114.063 245.641 114.106 245.684 114.106 245.737C114.106 245.791 114.063 245.834 114.009 245.834Z" fill="#052E1C"/>
<path d="M114.01 259.457H106.86C106.807 259.457 106.764 259.414 106.764 259.36C106.764 259.307 106.807 259.264 106.86 259.264H114.01C114.063 259.264 114.106 259.307 114.106 259.36C114.106 259.414 114.063 259.457 114.01 259.457Z" fill="#052E1C"/>
<path d="M109.248 258.096H106.86C103.802 258.096 101.314 255.608 101.314 252.55C101.314 249.492 103.802 247.004 106.86 247.004H109.248C112.306 247.004 114.794 249.492 114.794 252.55C114.794 255.608 112.306 258.096 109.248 258.096ZM106.86 247.197C103.909 247.197 101.508 249.599 101.508 252.55C101.508 255.502 103.909 257.903 106.86 257.903H109.248C112.2 257.903 114.601 255.502 114.601 252.55C114.601 249.599 112.2 247.197 109.248 247.197H106.86Z" fill="#052E1C"/>
<path d="M111.433 254.696H109.045C107.869 254.696 106.912 253.733 106.912 252.549C106.912 251.366 107.869 250.402 109.045 250.402H111.433C112.617 250.402 113.58 251.366 113.58 252.549C113.58 253.733 112.617 254.696 111.433 254.696ZM109.045 250.596C107.976 250.596 107.106 251.472 107.106 252.549C107.106 253.627 107.976 254.503 109.045 254.503H111.433C112.51 254.503 113.387 253.627 113.387 252.549C113.387 251.472 112.51 250.596 111.433 250.596H109.045Z" fill="#052E1C"/>
<path d="M106.86 259.458C103.051 259.458 99.9515 256.359 99.9515 252.549C99.9515 248.74 103.051 245.641 106.86 245.641C106.914 245.641 106.957 245.684 106.957 245.737C106.957 245.791 106.914 245.834 106.86 245.834C103.157 245.834 100.145 248.847 100.145 252.549C100.145 256.252 103.157 259.265 106.86 259.265C106.914 259.265 106.957 259.308 106.957 259.361C106.957 259.415 106.914 259.458 106.86 259.458Z" fill="#052E1C"/>
<path d="M115.709 247.534C115.656 247.534 115.612 247.49 115.612 247.437C115.612 246.553 114.893 245.834 114.009 245.834C113.956 245.834 113.912 245.791 113.912 245.737C113.912 245.684 113.956 245.641 114.009 245.641C115 245.641 115.806 246.446 115.806 247.437C115.806 247.49 115.763 247.534 115.709 247.534Z" fill="#052E1C"/>
<path d="M114.01 259.457C113.956 259.457 113.913 259.414 113.913 259.361C113.913 259.307 113.956 259.264 114.01 259.264C114.894 259.264 115.613 258.545 115.613 257.661C115.613 257.608 115.656 257.564 115.709 257.564C115.763 257.564 115.806 257.608 115.806 257.661C115.806 258.652 115 259.457 114.01 259.457Z" fill="#052E1C"/>
<path d="M115.709 247.534C115.656 247.534 115.612 247.49 115.612 247.437V240.558C115.612 240.504 115.656 240.461 115.709 240.461H120.943C120.996 240.461 121.04 240.504 121.04 240.558C121.04 240.611 120.996 240.654 120.943 240.654H115.806V247.437C115.806 247.491 115.763 247.534 115.709 247.534Z" fill="#052E1C"/>
<path d="M120.943 264.637H115.709C115.656 264.637 115.612 264.594 115.612 264.541V257.661C115.612 257.608 115.656 257.564 115.709 257.564C115.762 257.564 115.806 257.608 115.806 257.661V264.444H120.943C120.996 264.444 121.039 264.487 121.039 264.541C121.039 264.594 120.996 264.637 120.943 264.637Z" fill="#052E1C"/>
<path d="M115.709 257.758C115.656 257.758 115.612 257.715 115.612 257.661V247.437C115.612 247.383 115.656 247.34 115.709 247.34C115.762 247.34 115.806 247.383 115.806 247.437V257.661C115.806 257.715 115.763 257.758 115.709 257.758Z" fill="#052E1C"/>
<path d="M75.9433 206.216C75.8899 206.216 75.8466 206.173 75.8466 206.12C75.8466 206.066 75.8899 206.023 75.9433 206.023L93.1824 206.01C93.2358 206.01 93.2792 206.053 93.2792 206.107C93.2792 206.16 93.2358 206.203 93.1824 206.203L75.9433 206.216Z" fill="#052E1C"/>
<path d="M81.934 218.123C79.6039 218.123 77.2706 217.778 74.9982 217.086C74.9471 217.07 74.9183 217.016 74.9337 216.965C74.9494 216.914 75.0034 216.885 75.0545 216.901C79.5776 218.278 84.3438 218.273 88.8375 216.887C88.8886 216.871 88.9428 216.9 88.9584 216.951C88.9743 217.002 88.9457 217.057 88.8946 217.072C86.6215 217.773 84.2794 218.123 81.934 218.123Z" fill="#052E1C"/>
<path d="M81.9189 222.696C79.0069 222.696 76.0976 222.242 73.2702 221.333C73.2193 221.317 73.1913 221.262 73.2077 221.211C73.224 221.16 73.2787 221.133 73.3294 221.149C78.9593 222.958 84.9189 222.953 90.5631 221.135C90.6138 221.119 90.6684 221.147 90.6848 221.198C90.7013 221.249 90.6732 221.303 90.6225 221.32C87.7738 222.237 84.845 222.696 81.9189 222.696Z" fill="#052E1C"/>
<path d="M81.9365 221.2C79.1811 221.2 76.4245 220.768 73.7418 219.903C73.6909 219.887 73.6631 219.833 73.6793 219.782C73.6958 219.731 73.7505 219.703 73.801 219.719C79.1409 221.441 84.7781 221.436 90.1036 219.706C90.1545 219.689 90.2091 219.717 90.2255 219.768C90.2419 219.819 90.2141 219.874 90.1634 219.89C87.4747 220.764 84.7063 221.2 81.9365 221.2Z" fill="#052E1C"/>
<path d="M70.7098 217.763C70.6564 217.763 70.613 217.72 70.613 217.667L70.5995 206.12C70.5995 206.067 70.6426 206.023 70.6962 206.023C70.7496 206.023 70.793 206.067 70.793 206.12L70.8065 217.667C70.8065 217.72 70.7634 217.763 70.7098 217.763Z" fill="#052E1C"/>
<path d="M72.207 211.694C72.1536 211.694 72.1102 211.651 72.1102 211.598C72.1102 210.31 73.1582 209.262 74.4462 209.262C74.4996 209.262 74.5429 209.305 74.5429 209.358C74.5429 209.412 74.4996 209.455 74.4462 209.455C73.2648 209.455 72.3037 210.416 72.3037 211.598C72.3037 211.651 72.2604 211.694 72.207 211.694Z" fill="#052E1C"/>
<path d="M73.704 211.694C73.6506 211.694 73.6073 211.651 73.6073 211.598C73.6073 210.349 74.5773 209.325 75.818 209.262C75.8664 209.248 75.9022 209.248 75.943 209.248C75.9964 209.248 76.0398 209.291 76.0398 209.345C76.0398 209.398 75.9964 209.442 75.943 209.442C75.9067 209.442 75.8914 209.442 75.866 209.45C75.8575 209.453 75.8486 209.455 75.8395 209.455C74.6961 209.507 73.8006 210.448 73.8006 211.598C73.8008 211.651 73.7575 211.694 73.704 211.694Z" fill="#052E1C"/>
<path d="M73.704 215.295C73.6506 215.295 73.6073 215.251 73.6073 215.198V211.597C73.6073 211.543 73.6506 211.5 73.704 211.5C73.7575 211.5 73.8008 211.543 73.8008 211.597V215.198C73.8008 215.251 73.7575 215.295 73.704 215.295Z" fill="#052E1C"/>
<path d="M72.207 217.763C72.1536 217.763 72.1102 217.72 72.1102 217.666V211.597C72.1102 211.543 72.1536 211.5 72.207 211.5C72.2604 211.5 72.3037 211.543 72.3037 211.597V217.666C72.3037 217.72 72.2604 217.763 72.207 217.763Z" fill="#052E1C"/>
<path d="M75.0264 217.089C75.0169 217.089 75.0073 217.088 74.9978 217.085C74.1793 216.831 73.6077 216.055 73.6077 215.198C73.6077 215.145 73.651 215.102 73.7044 215.102C73.7578 215.102 73.8012 215.145 73.8012 215.198C73.8012 215.971 74.3169 216.671 75.0551 216.9C75.1061 216.916 75.1348 216.97 75.1189 217.021C75.1059 217.062 75.0676 217.089 75.0264 217.089Z" fill="#052E1C"/>
<path d="M73.2998 221.338C73.29 221.338 73.2799 221.337 73.27 221.334C71.681 220.818 70.6133 219.345 70.6133 217.667C70.6133 217.614 70.6566 217.57 70.71 217.57C70.7634 217.57 70.8068 217.614 70.8068 217.667C70.8068 219.26 71.8207 220.66 73.3298 221.15C73.3807 221.166 73.4086 221.221 73.3919 221.272C73.3786 221.312 73.3407 221.338 73.2998 221.338Z" fill="#052E1C"/>
<path d="M73.7719 219.909C73.7623 219.909 73.7522 219.907 73.7425 219.904C72.7663 219.593 72.1104 218.694 72.1104 217.667C72.1104 217.614 72.1537 217.57 72.2071 217.57C72.2605 217.57 72.3039 217.614 72.3039 217.667C72.3039 218.609 72.9056 219.434 73.8011 219.72C73.852 219.736 73.8801 219.79 73.864 219.841C73.8511 219.882 73.813 219.909 73.7719 219.909Z" fill="#052E1C"/>
<path d="M91.6854 211.694C91.632 211.694 91.5887 211.651 91.5887 211.598C91.5887 210.409 90.6276 209.442 89.4462 209.442C89.3928 209.442 89.3495 209.398 89.3495 209.345C89.3495 209.291 89.3928 209.248 89.4462 209.248C90.7342 209.248 91.7822 210.302 91.7822 211.598C91.7822 211.651 91.7388 211.694 91.6854 211.694Z" fill="#052E1C"/>
<path d="M90.5928 221.325C90.5518 221.325 90.5138 221.299 90.5007 221.258C90.4842 221.207 90.5123 221.153 90.563 221.136C92.08 220.648 93.0992 219.254 93.0992 217.667C93.0992 217.614 93.1425 217.57 93.1959 217.57C93.2493 217.57 93.2927 217.614 93.2927 217.667C93.2927 219.338 92.2195 220.807 90.6222 221.32C90.6127 221.324 90.6027 221.325 90.5928 221.325Z" fill="#052E1C"/>
<path d="M90.1341 219.895C90.0931 219.895 90.0552 219.869 90.0418 219.828C90.0256 219.777 90.0538 219.722 90.1045 219.706C91.0002 219.42 91.6018 218.601 91.6018 217.667C91.6018 217.614 91.6452 217.57 91.6986 217.57C91.752 217.57 91.7953 217.614 91.7953 217.667C91.7953 218.686 91.1394 219.579 90.1633 219.891C90.1539 219.894 90.1438 219.895 90.1341 219.895Z" fill="#052E1C"/>
<path d="M90.1882 211.694C90.1348 211.694 90.0914 211.651 90.0914 211.598C90.0914 210.422 89.1299 209.455 87.948 209.442C87.8948 209.441 87.8518 209.397 87.8524 209.344C87.853 209.29 87.8933 209.249 87.9503 209.248C89.2375 209.262 90.2849 210.316 90.2849 211.598C90.2849 211.651 90.2416 211.694 90.1882 211.694Z" fill="#052E1C"/>
<path d="M75.8358 209.455H74.4462C74.3928 209.455 74.3495 209.412 74.3495 209.358C74.3495 209.305 74.3928 209.262 74.4462 209.262H75.8356L89.4456 209.248C89.499 209.248 89.5423 209.291 89.5423 209.345C89.5423 209.398 89.499 209.442 89.4456 209.442H87.9487L75.8358 209.455Z" fill="#052E1C"/>
<path d="M90.1879 215.282C90.1345 215.282 90.0912 215.238 90.0912 215.185V211.597C90.0912 211.543 90.1345 211.5 90.1879 211.5C90.2413 211.5 90.2847 211.543 90.2847 211.597V215.185C90.2847 215.238 90.2413 215.282 90.1879 215.282Z" fill="#052E1C"/>
<path d="M88.8663 217.075C88.8247 217.075 88.7866 217.048 88.7736 217.007C88.7581 216.956 88.7868 216.902 88.838 216.886C89.5877 216.657 90.0913 215.974 90.0913 215.185C90.0913 215.131 90.1347 215.088 90.1881 215.088C90.2415 215.088 90.2848 215.131 90.2848 215.185C90.2848 216.059 89.726 216.817 88.8944 217.071C88.8851 217.074 88.8754 217.075 88.8663 217.075Z" fill="#052E1C"/>
<path d="M93.196 217.764C93.1426 217.764 93.0992 217.721 93.0992 217.667L93.0857 206.121L93.1824 206.107H93.2792L93.2927 217.667C93.2927 217.72 93.2496 217.764 93.196 217.764Z" fill="#052E1C"/>
<path d="M91.699 217.763C91.6458 217.763 91.6025 217.72 91.6023 217.667L91.5887 211.597C91.5886 211.544 91.6319 211.5 91.6853 211.5C91.7385 211.5 91.7821 211.543 91.7822 211.597L91.7958 217.666C91.796 217.72 91.7528 217.763 91.699 217.763Z" fill="#052E1C"/>
<path d="M81.9461 212.125C81.3351 212.125 80.8378 211.634 80.8378 211.03C80.8378 210.419 81.3351 209.922 81.9461 209.922C82.5572 209.922 83.0545 210.419 83.0545 211.03C83.0545 211.634 82.5572 212.125 81.9461 212.125ZM81.9461 210.115C81.4417 210.115 81.0313 210.526 81.0313 211.03C81.0313 211.527 81.4417 211.932 81.9461 211.932C82.4506 211.932 82.861 211.527 82.861 211.03C82.861 210.526 82.4506 210.115 81.9461 210.115Z" fill="#052E1C"/>
<path d="M136.482 198.637H113.78C113.727 198.637 113.683 198.594 113.683 198.541C113.683 198.487 113.727 198.444 113.78 198.444H136.385V175.922H113.78C113.727 175.922 113.683 175.879 113.683 175.825C113.683 175.772 113.727 175.729 113.78 175.729H136.482C136.535 175.729 136.579 175.772 136.579 175.825V198.541C136.579 198.594 136.535 198.637 136.482 198.637Z" fill="#052E1C"/>
<path d="M133.271 177.822H116.99C116.937 177.822 116.893 177.779 116.893 177.726C116.893 177.672 116.937 177.629 116.99 177.629H133.271C133.325 177.629 133.368 177.672 133.368 177.726C133.368 177.779 133.325 177.822 133.271 177.822Z" fill="#052E1C"/>
<path d="M115.669 193.524C115.615 193.524 115.572 193.481 115.572 193.427V179.048C115.572 178.995 115.615 178.951 115.669 178.951C115.722 178.951 115.765 178.995 115.765 179.048V193.427C115.765 193.481 115.722 193.524 115.669 193.524Z" fill="#052E1C"/>
<path d="M133.271 194.846H116.99C116.937 194.846 116.893 194.802 116.893 194.749C116.893 194.696 116.937 194.652 116.99 194.652H133.271C133.325 194.652 133.368 194.696 133.368 194.749C133.368 194.802 133.325 194.846 133.271 194.846Z" fill="#052E1C"/>
<path d="M134.594 193.524C134.54 193.524 134.497 193.481 134.497 193.427V179.048C134.497 178.995 134.54 178.951 134.594 178.951C134.647 178.951 134.69 178.995 134.69 179.048V193.427C134.69 193.481 134.647 193.524 134.594 193.524Z" fill="#052E1C"/>
<path d="M116.991 194.846C116.209 194.846 115.572 194.209 115.572 193.427C115.572 193.373 115.615 193.33 115.669 193.33C115.722 193.33 115.766 193.373 115.766 193.427C115.766 194.102 116.315 194.652 116.991 194.652C117.044 194.652 117.088 194.695 117.088 194.749C117.088 194.802 117.044 194.846 116.991 194.846Z" fill="#052E1C"/>
<path d="M133.271 194.846C133.218 194.846 133.175 194.802 133.175 194.749C133.175 194.695 133.218 194.652 133.271 194.652C133.947 194.652 134.497 194.102 134.497 193.427C134.497 193.373 134.54 193.33 134.593 193.33C134.647 193.33 134.69 193.373 134.69 193.427C134.69 194.209 134.054 194.846 133.271 194.846Z" fill="#052E1C"/>
<path d="M115.669 179.144C115.615 179.144 115.572 179.101 115.572 179.048C115.572 178.265 116.209 177.629 116.991 177.629C117.044 177.629 117.088 177.672 117.088 177.726C117.088 177.779 117.044 177.822 116.991 177.822C116.315 177.822 115.766 178.372 115.766 179.048C115.766 179.101 115.722 179.144 115.669 179.144Z" fill="#052E1C"/>
<path d="M134.593 179.144C134.54 179.144 134.497 179.101 134.497 179.048C134.497 178.372 133.947 177.822 133.271 177.822C133.218 177.822 133.175 177.779 133.175 177.726C133.175 177.672 133.218 177.629 133.271 177.629C134.054 177.629 134.69 178.265 134.69 179.048C134.69 179.101 134.647 179.144 134.593 179.144Z" fill="#052E1C"/>
<path d="M121.347 192.485C120.558 192.485 119.916 191.849 119.916 191.067C119.916 190.277 120.558 189.635 121.347 189.635C122.13 189.635 122.766 190.277 122.766 191.067C122.766 191.849 122.13 192.485 121.347 192.485ZM121.347 189.828C120.665 189.828 120.109 190.384 120.109 191.066C120.109 191.742 120.665 192.292 121.347 192.292C122.023 192.292 122.573 191.742 122.573 191.066C122.573 190.384 122.023 189.828 121.347 189.828Z" fill="#052E1C"/>
<path d="M113.78 198.637H91.0644C91.011 198.637 90.9677 198.594 90.9677 198.541V198.514C90.9677 198.46 91.011 198.417 91.0644 198.417C91.0903 198.417 91.1139 198.427 91.1313 198.444H113.683V175.922H91.0644C91.011 175.922 90.9677 175.879 90.9677 175.825C90.9677 175.772 91.011 175.729 91.0644 175.729H113.78C113.833 175.729 113.877 175.772 113.877 175.825V198.541C113.877 198.594 113.834 198.637 113.78 198.637Z" fill="#052E1C"/>
<path d="M102.422 193.361C101.25 193.361 100.117 193.034 99.1463 192.415C97.3446 191.272 96.2689 189.325 96.2689 187.208C96.2689 183.815 99.0294 181.055 102.422 181.055C103.595 181.055 104.728 181.382 105.698 182.001C107.5 183.145 108.576 185.092 108.576 187.208C108.576 190.601 105.815 193.361 102.422 193.361ZM102.422 181.248C99.136 181.248 96.4624 183.922 96.4624 187.208C96.4624 189.259 97.5046 191.144 99.25 192.252C100.19 192.851 101.286 193.168 102.422 193.168C105.708 193.168 108.382 190.495 108.382 187.208C108.382 185.158 107.34 183.272 105.594 182.164H105.594C104.655 181.565 103.558 181.248 102.422 181.248Z" fill="#052E1C"/>
<path d="M97.1079 194.225C97.0806 194.225 97.0537 194.213 97.0344 194.191C96.9996 194.15 97.0044 194.089 97.045 194.054L99.1358 192.26L104.887 187.305H99.6979C99.6575 187.305 99.6213 187.28 99.6072 187.242C99.5932 187.204 99.6041 187.162 99.6348 187.135L107.661 180.215C107.701 180.18 107.762 180.184 107.797 180.225C107.832 180.265 107.828 180.327 107.787 180.361L99.9585 187.112H105.147C105.188 187.112 105.224 187.137 105.238 187.175C105.252 187.212 105.241 187.255 105.211 187.282L99.262 192.407L97.171 194.201C97.1528 194.217 97.1304 194.225 97.1079 194.225Z" fill="#052E1C"/>
<path d="M91.0651 198.61H68.3496C68.2962 198.61 68.2528 198.567 68.2528 198.514V175.812C68.2528 175.758 68.2962 175.715 68.3496 175.715H91.0651C91.1185 175.715 91.1618 175.758 91.1618 175.812V198.514C91.1618 198.567 91.1185 198.61 91.0651 198.61ZM68.4463 198.417H90.9684V175.908H68.4463V198.417Z" fill="#052E1C"/>
<path d="M85.3857 196.721C85.3323 196.721 85.2889 196.678 85.2889 196.625V189.058C85.2889 189.004 85.3323 188.961 85.3857 188.961C85.4391 188.961 85.4824 189.004 85.4824 189.058V196.625C85.4824 196.678 85.4393 196.721 85.3857 196.721Z" fill="#052E1C"/>
<path d="M89.1629 192.93H81.5957C81.5422 192.93 81.4989 192.886 81.4989 192.833C81.4989 192.78 81.5422 192.736 81.5957 192.736H89.1629C89.2163 192.736 89.2596 192.78 89.2596 192.833C89.2596 192.886 89.2163 192.93 89.1629 192.93Z" fill="#052E1C"/>
<path d="M85.3861 195.965C83.6593 195.965 82.2543 194.56 82.2543 192.833C82.2543 191.113 83.6593 189.715 85.3861 189.715C87.1055 189.715 88.5043 191.114 88.5043 192.833C88.5043 194.56 87.1055 195.965 85.3861 195.965ZM85.3861 189.908C83.7659 189.908 82.4478 191.22 82.4478 192.833C82.4478 194.453 83.7659 195.771 85.3861 195.771C86.9989 195.771 88.3108 194.453 88.3108 192.833C88.3108 191.22 86.9989 189.908 85.3861 189.908Z" fill="#052E1C"/>
<path d="M85.3857 185.364C85.3323 185.364 85.2889 185.321 85.2889 185.267V177.7C85.2889 177.647 85.3323 177.604 85.3857 177.604C85.4391 177.604 85.4824 177.647 85.4824 177.7V185.267C85.4824 185.321 85.4393 185.364 85.3857 185.364Z" fill="#052E1C"/>
<path d="M89.1629 181.586H81.5957C81.5422 181.586 81.4989 181.543 81.4989 181.489C81.4989 181.436 81.5422 181.393 81.5957 181.393H89.1629C89.2163 181.393 89.2596 181.436 89.2596 181.489C89.2596 181.543 89.2163 181.586 89.1629 181.586Z" fill="#052E1C"/>
<path d="M85.3861 184.607C83.6593 184.607 82.2543 183.209 82.2543 181.489C82.2543 179.762 83.6593 178.357 85.3861 178.357C87.1055 178.357 88.5043 179.762 88.5043 181.489C88.5043 183.209 87.1055 184.607 85.3861 184.607ZM85.3861 178.551C83.7659 178.551 82.4478 179.869 82.4478 181.489C82.4478 183.102 83.7659 184.414 85.3861 184.414C86.9989 184.414 88.3108 183.102 88.3108 181.489C88.3108 179.869 86.9989 178.551 85.3861 178.551Z" fill="#052E1C"/>
<path d="M74.0283 185.364C73.9749 185.364 73.9315 185.321 73.9315 185.267V177.7C73.9315 177.647 73.9749 177.604 74.0283 177.604C74.0817 177.604 74.125 177.647 74.125 177.7V185.267C74.125 185.321 74.0817 185.364 74.0283 185.364Z" fill="#052E1C"/>
<path d="M77.8185 181.586H70.2377C70.1843 181.586 70.141 181.543 70.141 181.489C70.141 181.436 70.1843 181.393 70.2377 181.393H77.8185C77.8719 181.393 77.9152 181.436 77.9152 181.489C77.9152 181.543 77.8719 181.586 77.8185 181.586Z" fill="#052E1C"/>
<path d="M74.0282 184.607C72.3014 184.607 70.8964 183.209 70.8964 181.489C70.8964 179.762 72.3014 178.357 74.0282 178.357C75.7476 178.357 77.1464 179.762 77.1464 181.489C77.1464 183.209 75.7476 184.607 74.0282 184.607ZM74.0282 178.551C72.408 178.551 71.0899 179.869 71.0899 181.489C71.0899 183.102 72.408 184.414 74.0282 184.414C75.6408 184.414 76.9529 183.102 76.9529 181.489C76.9529 179.869 75.6408 178.551 74.0282 178.551Z" fill="#052E1C"/>
<path d="M74.0283 196.721C73.9749 196.721 73.9315 196.678 73.9315 196.625V189.058C73.9315 189.004 73.9749 188.961 74.0283 188.961C74.0817 188.961 74.125 189.004 74.125 189.058V196.625C74.125 196.678 74.0817 196.721 74.0283 196.721Z" fill="#052E1C"/>
<path d="M77.8185 192.93H70.2377C70.1843 192.93 70.141 192.886 70.141 192.833C70.141 192.78 70.1843 192.736 70.2377 192.736H77.8185C77.8719 192.736 77.9152 192.78 77.9152 192.833C77.9152 192.886 77.8719 192.93 77.8185 192.93Z" fill="#052E1C"/>
<path d="M74.0282 195.965C72.3014 195.965 70.8964 194.56 70.8964 192.833C70.8964 191.113 72.3014 189.715 74.0282 189.715C75.7476 189.715 77.1464 191.114 77.1464 192.833C77.1464 194.56 75.7476 195.965 74.0282 195.965ZM74.0282 189.908C72.408 189.908 71.0899 191.22 71.0899 192.833C71.0899 194.453 72.408 195.771 74.0282 195.771C75.6408 195.771 76.9529 194.453 76.9529 192.833C76.9529 191.22 75.6408 189.908 74.0282 189.908Z" fill="#052E1C"/>
<path d="M31.2548 198.637H8.5395C8.48609 198.637 8.44275 198.594 8.44275 198.541V175.825C8.44275 175.772 8.48609 175.729 8.5395 175.729H31.2548C31.3082 175.729 31.3516 175.772 31.3516 175.825V198.541C31.3516 198.594 31.3082 198.637 31.2548 198.637ZM8.63625 198.444H31.1581V175.922H8.63625V198.444Z" fill="#052E1C"/>
<path d="M19.8974 192.849C19.844 192.849 19.8007 192.806 19.8007 192.752V181.624C19.8007 181.571 19.844 181.527 19.8974 181.527C19.9508 181.527 19.9942 181.571 19.9942 181.624V192.752C19.9942 192.806 19.9508 192.849 19.8974 192.849Z" fill="#052E1C"/>
<path d="M25.4546 187.279H14.3398C14.2864 187.279 14.243 187.236 14.243 187.183C14.243 187.129 14.2864 187.086 14.3398 187.086H25.4546C25.508 187.086 25.5514 187.129 25.5514 187.183C25.5514 187.236 25.508 187.279 25.4546 187.279Z" fill="#052E1C"/>
<path d="M22.676 191.608C22.66 191.608 22.6439 191.604 22.629 191.596L19.8972 190.071L17.1657 191.596C17.1193 191.622 17.0601 191.605 17.0342 191.559C17.008 191.512 17.0249 191.453 17.0715 191.427L19.8502 189.875C19.8794 189.859 19.9152 189.859 19.9444 189.875L22.7233 191.427C22.7699 191.453 22.7867 191.512 22.7606 191.559C22.7428 191.59 22.7099 191.608 22.676 191.608Z" fill="#052E1C"/>
<path d="M24.227 190.071C24.193 190.071 24.1601 190.053 24.1423 190.021L22.5912 187.229C22.5749 187.2 22.5749 187.164 22.5912 187.135L24.1423 184.356C24.1682 184.31 24.227 184.293 24.2739 184.319C24.3205 184.345 24.3373 184.404 24.3112 184.451L22.7864 187.182L24.3112 189.927C24.3371 189.974 24.3203 190.033 24.2737 190.059C24.2591 190.067 24.2429 190.071 24.227 190.071Z" fill="#052E1C"/>
<path d="M19.8968 184.501C19.8807 184.501 19.8644 184.497 19.8499 184.489L17.0713 182.951C17.0244 182.925 17.0076 182.866 17.0335 182.819C17.0595 182.773 17.1183 182.756 17.1651 182.782L19.8969 184.293L22.629 182.782C22.6756 182.756 22.7346 182.773 22.7606 182.819C22.7865 182.866 22.7695 182.925 22.7228 182.951L19.944 184.489C19.9291 184.497 19.9128 184.501 19.8968 184.501Z" fill="#052E1C"/>
<path d="M15.5669 190.071C15.551 190.071 15.5348 190.067 15.5201 190.059C15.4732 190.033 15.4564 189.974 15.4825 189.927L17.0077 187.182L15.4827 184.451C15.4566 184.404 15.4734 184.345 15.5201 184.319C15.5667 184.293 15.6255 184.31 15.6516 184.356L17.2029 187.134C17.2192 187.164 17.2192 187.2 17.2029 187.229L15.6516 190.021C15.634 190.053 15.6009 190.071 15.5669 190.071Z" fill="#052E1C"/>
<path d="M103.974 27.3126H41.1425C41.0891 27.3126 41.0458 27.2693 41.0458 27.2159C41.0458 27.1625 41.0891 27.1191 41.1425 27.1191H103.974C104.027 27.1191 104.071 27.1625 104.071 27.2159C104.071 27.2693 104.027 27.3126 103.974 27.3126Z" fill="#052E1C"/>
<path d="M38.4846 29.0138H35.8408C35.7874 29.0138 35.744 28.9705 35.744 28.9171C35.744 28.8637 35.7874 28.8203 35.8408 28.8203H38.4846C38.538 28.8203 38.5813 28.8637 38.5813 28.9171C38.5813 28.9705 38.538 29.0138 38.4846 29.0138Z" fill="#052E1C"/>
<path d="M103.974 29.0138H41.1425C41.0891 29.0138 41.0458 28.9705 41.0458 28.9171C41.0458 28.8637 41.0891 28.8203 41.1425 28.8203H103.974C104.027 28.8203 104.071 28.8637 104.071 28.9171C104.071 28.9705 104.027 29.0138 103.974 29.0138Z" fill="#052E1C"/>
<path d="M109.275 29.0138H106.631C106.577 29.0138 106.534 28.9705 106.534 28.9171C106.534 28.8637 106.577 28.8203 106.631 28.8203H109.275C109.328 28.8203 109.371 28.8637 109.371 28.9171C109.371 28.9705 109.328 29.0138 109.275 29.0138Z" fill="#052E1C"/>
<path d="M109.275 31.6698C109.221 31.6698 109.178 31.6264 109.178 31.573V25.5167C109.178 25.4633 109.221 25.4199 109.275 25.4199C109.328 25.4199 109.372 25.4633 109.372 25.5167V31.573C109.372 31.6264 109.328 31.6698 109.275 31.6698Z" fill="#052E1C"/>
<path d="M35.8408 31.6698C35.7874 31.6698 35.744 31.6264 35.744 31.573V25.5167C35.744 25.4633 35.7874 25.4199 35.8408 25.4199C35.8942 25.4199 35.9375 25.4633 35.9375 25.5167V31.573C35.9375 31.6264 35.8944 31.6698 35.8408 31.6698Z" fill="#052E1C"/>
<path d="M106.631 25.6136C106.577 25.6136 106.534 25.5703 106.534 25.5169V21.3487C106.534 21.2953 106.577 21.252 106.631 21.252C106.684 21.252 106.728 21.2953 106.728 21.3487V25.5169C106.728 25.5703 106.684 25.6136 106.631 25.6136Z" fill="#052E1C"/>
<path d="M38.4848 25.6136C38.4314 25.6136 38.3881 25.5703 38.3881 25.5169V21.3487C38.3881 21.2953 38.4314 21.252 38.4848 21.252C38.5382 21.252 38.5816 21.2953 38.5816 21.3487V25.5169C38.5816 25.5703 38.5382 25.6136 38.4848 25.6136Z" fill="#052E1C"/>
<path d="M106.631 21.4455H38.4848C38.4314 21.4455 38.3881 21.4021 38.3881 21.3487C38.3881 21.2953 38.4314 21.252 38.4848 21.252H106.631C106.684 21.252 106.728 21.2953 106.728 21.3487C106.728 21.4021 106.684 21.4455 106.631 21.4455Z" fill="#052E1C"/>
<path d="M109.275 31.6701H35.8411C35.7877 31.6701 35.7444 31.6267 35.7444 31.5733C35.7444 31.5199 35.7877 31.4766 35.8411 31.4766H109.275C109.328 31.4766 109.372 31.5199 109.372 31.5733C109.372 31.6267 109.328 31.6701 109.275 31.6701Z" fill="#052E1C"/>
<path d="M41.1422 29.0126H38.4848C38.4314 29.0126 38.3881 28.9693 38.3881 28.9159V25.5167C38.3881 25.4633 38.4314 25.4199 38.4848 25.4199C38.5382 25.4199 38.5816 25.4633 38.5816 25.5167V28.8191H41.0454V25.5167C41.0454 25.4633 41.0887 25.4199 41.1422 25.4199C41.1956 25.4199 41.2389 25.4633 41.2389 25.5167V28.9159C41.2389 28.9693 41.1956 29.0126 41.1422 29.0126Z" fill="#052E1C"/>
<path d="M106.631 29.0126H103.974C103.92 29.0126 103.877 28.9693 103.877 28.9159V25.5167C103.877 25.4633 103.92 25.4199 103.974 25.4199C104.027 25.4199 104.07 25.4633 104.07 25.5167V28.8191H106.534V25.5167C106.534 25.4633 106.578 25.4199 106.631 25.4199C106.684 25.4199 106.728 25.4633 106.728 25.5167V28.9159C106.728 28.9693 106.684 29.0126 106.631 29.0126Z" fill="#052E1C"/>
<path d="M109.274 25.6134H35.8408C35.7874 25.6134 35.744 25.5701 35.744 25.5167C35.744 25.4633 35.7874 25.4199 35.8408 25.4199H109.274C109.328 25.4199 109.371 25.4633 109.371 25.5167C109.371 25.5701 109.328 25.6134 109.274 25.6134Z" fill="#052E1C"/>
<path d="M64.3024 198.637H62.7002C62.6468 198.637 62.6034 198.594 62.6034 198.54C62.6034 198.487 62.6468 198.443 62.7002 198.443H64.3024C64.3558 198.443 64.3991 198.487 64.3991 198.54C64.3991 198.594 64.356 198.637 64.3024 198.637ZM60.7652 198.637H58.8302C58.7768 198.637 58.7334 198.594 58.7334 198.54C58.7334 198.487 58.7768 198.443 58.8302 198.443H60.7652C60.8186 198.443 60.8619 198.487 60.8619 198.54C60.8619 198.594 60.8186 198.637 60.7652 198.637ZM56.8952 198.637H54.9602C54.9068 198.637 54.8634 198.594 54.8634 198.54C54.8634 198.487 54.9068 198.443 54.9602 198.443H56.8952C56.9486 198.443 56.9919 198.487 56.9919 198.54C56.9919 198.594 56.9486 198.637 56.8952 198.637ZM53.0252 198.637H51.0902C51.0368 198.637 50.9934 198.594 50.9934 198.54C50.9934 198.487 51.0368 198.443 51.0902 198.443H53.0252C53.0786 198.443 53.1219 198.487 53.1219 198.54C53.1219 198.594 53.0786 198.637 53.0252 198.637ZM49.1552 198.637H47.2202C47.1668 198.637 47.1234 198.594 47.1234 198.54C47.1234 198.487 47.1668 198.443 47.2202 198.443H49.1552C49.2086 198.443 49.2519 198.487 49.2519 198.54C49.2519 198.594 49.2086 198.637 49.1552 198.637ZM45.2852 198.637H43.3502C43.2968 198.637 43.2534 198.594 43.2534 198.54C43.2534 198.487 43.2968 198.443 43.3502 198.443H45.2852C45.3386 198.443 45.3819 198.487 45.3819 198.54C45.3819 198.594 45.3386 198.637 45.2852 198.637ZM41.4152 198.637H39.4802C39.4268 198.637 39.3834 198.594 39.3834 198.54C39.3834 198.487 39.4268 198.443 39.4802 198.443H41.4152C41.4686 198.443 41.5119 198.487 41.5119 198.54C41.5119 198.594 41.4686 198.637 41.4152 198.637ZM37.5452 198.637H35.6102C35.5568 198.637 35.5134 198.594 35.5134 198.54C35.5134 198.487 35.5568 198.443 35.6102 198.443H37.5452C37.5986 198.443 37.6419 198.487 37.6419 198.54C37.6419 198.594 37.5986 198.637 37.5452 198.637ZM33.6752 198.637H31.7402C31.6868 198.637 31.6434 198.594 31.6434 198.54C31.6434 198.487 31.6868 198.443 31.7402 198.443H33.6752C33.7286 198.443 33.7719 198.487 33.7719 198.54C33.7719 198.594 33.7286 198.637 33.6752 198.637Z" fill="#052E1C"/>
<path d="M136.09 141.834H134.155C134.102 141.834 134.059 141.791 134.059 141.737C134.059 141.684 134.102 141.641 134.155 141.641H136.09C136.144 141.641 136.187 141.684 136.187 141.737C136.187 141.791 136.144 141.834 136.09 141.834ZM132.22 141.834H130.285C130.232 141.834 130.189 141.791 130.189 141.737C130.189 141.684 130.232 141.641 130.285 141.641H132.22C132.274 141.641 132.317 141.684 132.317 141.737C132.317 141.791 132.274 141.834 132.22 141.834ZM128.35 141.834H126.415C126.362 141.834 126.319 141.791 126.319 141.737C126.319 141.684 126.362 141.641 126.415 141.641H128.35C128.404 141.641 128.447 141.684 128.447 141.737C128.447 141.791 128.404 141.834 128.35 141.834ZM124.48 141.834H122.545C122.492 141.834 122.449 141.791 122.449 141.737C122.449 141.684 122.492 141.641 122.545 141.641H124.48C124.534 141.641 124.577 141.684 124.577 141.737C124.577 141.791 124.534 141.834 124.48 141.834ZM120.61 141.834H118.675C118.622 141.834 118.579 141.791 118.579 141.737C118.579 141.684 118.622 141.641 118.675 141.641H120.61C120.664 141.641 120.707 141.684 120.707 141.737C120.707 141.791 120.664 141.834 120.61 141.834ZM116.74 141.834H114.805C114.752 141.834 114.709 141.791 114.709 141.737C114.709 141.684 114.752 141.641 114.805 141.641H116.74C116.794 141.641 116.837 141.684 116.837 141.737C116.837 141.791 116.794 141.834 116.74 141.834ZM112.87 141.834H110.935C110.882 141.834 110.839 141.791 110.839 141.737C110.839 141.684 110.882 141.641 110.935 141.641H112.87C112.924 141.641 112.967 141.684 112.967 141.737C112.967 141.791 112.924 141.834 112.87 141.834ZM109 141.834H107.065C107.012 141.834 106.969 141.791 106.969 141.737C106.969 141.684 107.012 141.641 107.065 141.641H109C109.054 141.641 109.097 141.684 109.097 141.737C109.097 141.791 109.054 141.834 109 141.834ZM105.13 141.834H103.195C103.142 141.834 103.099 141.791 103.099 141.737C103.099 141.684 103.142 141.641 103.195 141.641H105.13C105.184 141.641 105.227 141.684 105.227 141.737C105.227 141.791 105.184 141.834 105.13 141.834ZM101.26 141.834H99.3254C99.272 141.834 99.2286 141.791 99.2286 141.737C99.2286 141.684 99.272 141.641 99.3254 141.641H101.26C101.314 141.641 101.357 141.684 101.357 141.737C101.357 141.791 101.314 141.834 101.26 141.834ZM97.3904 141.834H95.4554C95.402 141.834 95.3586 141.791 95.3586 141.737C95.3586 141.684 95.402 141.641 95.4554 141.641H97.3904C97.4438 141.641 97.4871 141.684 97.4871 141.737C97.4871 141.791 97.444 141.834 97.3904 141.834ZM93.5204 141.834H91.5854C91.532 141.834 91.4886 141.791 91.4886 141.737C91.4886 141.684 91.532 141.641 91.5854 141.641H93.5204C93.5738 141.641 93.6171 141.684 93.6171 141.737C93.6171 141.791 93.574 141.834 93.5204 141.834ZM89.6504 141.834H87.7154C87.662 141.834 87.6186 141.791 87.6186 141.737C87.6186 141.684 87.662 141.641 87.7154 141.641H89.6504C89.7038 141.641 89.7471 141.684 89.7471 141.737C89.7471 141.791 89.704 141.834 89.6504 141.834ZM85.7804 141.834H83.8454C83.792 141.834 83.7486 141.791 83.7486 141.737C83.7486 141.684 83.792 141.641 83.8454 141.641H85.7804C85.8338 141.641 85.8771 141.684 85.8771 141.737C85.8771 141.791 85.834 141.834 85.7804 141.834ZM81.9104 141.834H79.9754C79.922 141.834 79.8786 141.791 79.8786 141.737C79.8786 141.684 79.922 141.641 79.9754 141.641H81.9104C81.9638 141.641 82.0071 141.684 82.0071 141.737C82.0071 141.791 81.964 141.834 81.9104 141.834ZM78.0404 141.834H76.1054C76.052 141.834 76.0086 141.791 76.0086 141.737C76.0086 141.684 76.052 141.641 76.1054 141.641H78.0404C78.0938 141.641 78.1371 141.684 78.1371 141.737C78.1371 141.791 78.094 141.834 78.0404 141.834ZM74.1704 141.834H72.2354C72.182 141.834 72.1386 141.791 72.1386 141.737C72.1386 141.684 72.182 141.641 72.2354 141.641H74.1704C74.2238 141.641 74.2671 141.684 74.2671 141.737C74.2671 141.791 74.224 141.834 74.1704 141.834ZM70.3004 141.834H68.3654C68.312 141.834 68.2686 141.791 68.2686 141.737C68.2686 141.684 68.312 141.641 68.3654 141.641H70.3004C70.3538 141.641 70.3971 141.684 70.3971 141.737C70.3971 141.791 70.354 141.834 70.3004 141.834ZM66.4304 141.834H64.4954C64.442 141.834 64.3986 141.791 64.3986 141.737C64.3986 141.684 64.442 141.641 64.4954 141.641H66.4304C66.4838 141.641 66.5271 141.684 66.5271 141.737C66.5271 141.791 66.484 141.834 66.4304 141.834ZM62.5604 141.834H60.6254C60.572 141.834 60.5286 141.791 60.5286 141.737C60.5286 141.684 60.572 141.641 60.6254 141.641H62.5604C62.6138 141.641 62.6571 141.684 62.6571 141.737C62.6571 141.791 62.614 141.834 62.5604 141.834ZM58.6904 141.834H56.7554C56.702 141.834 56.6586 141.791 56.6586 141.737C56.6586 141.684 56.702 141.641 56.7554 141.641H58.6904C58.7438 141.641 58.7871 141.684 58.7871 141.737C58.7871 141.791 58.744 141.834 58.6904 141.834ZM54.8204 141.834H52.8854C52.832 141.834 52.7886 141.791 52.7886 141.737C52.7886 141.684 52.832 141.641 52.8854 141.641H54.8204C54.8738 141.641 54.9171 141.684 54.9171 141.737C54.9171 141.791 54.874 141.834 54.8204 141.834ZM50.9504 141.834H49.0154C48.962 141.834 48.9186 141.791 48.9186 141.737C48.9186 141.684 48.962 141.641 49.0154 141.641H50.9504C51.0038 141.641 51.0471 141.684 51.0471 141.737C51.0471 141.791 51.004 141.834 50.9504 141.834ZM47.0804 141.834H45.1454C45.092 141.834 45.0486 141.791 45.0486 141.737C45.0486 141.684 45.092 141.641 45.1454 141.641H47.0804C47.1338 141.641 47.1771 141.684 47.1771 141.737C47.1771 141.791 47.134 141.834 47.0804 141.834ZM43.2104 141.834H41.2754C41.222 141.834 41.1786 141.791 41.1786 141.737C41.1786 141.684 41.222 141.641 41.2754 141.641H43.2104C43.2638 141.641 43.3071 141.684 43.3071 141.737C43.3071 141.791 43.264 141.834 43.2104 141.834ZM39.3404 141.834H37.4054C37.352 141.834 37.3086 141.791 37.3086 141.737C37.3086 141.684 37.352 141.641 37.4054 141.641H39.3404C39.3938 141.641 39.4371 141.684 39.4371 141.737C39.4371 141.791 39.394 141.834 39.3404 141.834ZM35.4704 141.834H33.5354C33.482 141.834 33.4386 141.791 33.4386 141.737C33.4386 141.684 33.482 141.641 33.5354 141.641H35.4704C35.5238 141.641 35.5671 141.684 35.5671 141.737C35.5671 141.791 35.524 141.834 35.4704 141.834ZM31.6004 141.834H29.6654C29.612 141.834 29.5686 141.791 29.5686 141.737C29.5686 141.684 29.612 141.641 29.6654 141.641H31.6004C31.6538 141.641 31.6971 141.684 31.6971 141.737C31.6971 141.791 31.654 141.834 31.6004 141.834ZM27.7304 141.834H25.7954C25.742 141.834 25.6986 141.791 25.6986 141.737C25.6986 141.684 25.742 141.641 25.7954 141.641H27.7304C27.7838 141.641 27.8271 141.684 27.8271 141.737C27.8271 141.791 27.784 141.834 27.7304 141.834ZM23.8604 141.834H21.9254C21.872 141.834 21.8286 141.791 21.8286 141.737C21.8286 141.684 21.872 141.641 21.9254 141.641H23.8604C23.9138 141.641 23.9571 141.684 23.9571 141.737C23.9571 141.791 23.914 141.834 23.8604 141.834ZM19.9904 141.834H18.0554C18.002 141.834 17.9586 141.791 17.9586 141.737C17.9586 141.684 18.002 141.641 18.0554 141.641H19.9904C20.0438 141.641 20.0871 141.684 20.0871 141.737C20.0871 141.791 20.044 141.834 19.9904 141.834ZM16.1204 141.834H14.1854C14.132 141.834 14.0886 141.791 14.0886 141.737C14.0886 141.684 14.132 141.641 14.1854 141.641H16.1204C16.1738 141.641 16.2171 141.684 16.2171 141.737C16.2171 141.791 16.174 141.834 16.1204 141.834ZM12.2504 141.834H10.3154C10.262 141.834 10.2186 141.791 10.2186 141.737C10.2186 141.684 10.262 141.641 10.3154 141.641H12.2504C12.3038 141.641 12.3471 141.684 12.3471 141.737C12.3471 141.791 12.304 141.834 12.2504 141.834Z" fill="#052E1C"/>
<path d="M120.943 266.742C120.889 266.742 120.846 266.699 120.846 266.645V236.403C120.846 236.35 120.889 236.307 120.943 236.307H136.482C136.535 236.307 136.579 236.35 136.579 236.403C136.579 236.457 136.535 236.5 136.482 236.5H121.04V266.645C121.04 266.699 120.996 266.742 120.943 266.742Z" fill="#052E1C"/>
<path d="M122.845 266.742C122.791 266.742 122.748 266.699 122.748 266.646V238.292C122.748 238.239 122.791 238.195 122.845 238.195H136.482C136.535 238.195 136.579 238.239 136.579 238.292C136.579 238.345 136.535 238.389 136.482 238.389H122.941V266.646C122.941 266.699 122.898 266.742 122.845 266.742Z" fill="#052E1C"/>
<path d="M131.532 261.739H127.188C127.135 261.739 127.092 261.695 127.092 261.642V242.933C127.092 242.879 127.135 242.836 127.188 242.836H131.532C131.585 242.836 131.628 242.879 131.628 242.933V261.642C131.628 261.695 131.585 261.739 131.532 261.739ZM127.285 261.545H131.435V243.029H127.285V261.545Z" fill="#052E1C"/>
<path d="M131.532 261.737C131.519 261.737 131.507 261.734 131.495 261.729L128.365 260.435C128.331 260.421 128.308 260.388 128.306 260.352L127.092 242.938C127.088 242.884 127.128 242.838 127.182 242.834C127.234 242.83 127.281 242.871 127.285 242.924L128.495 260.279L131.569 261.551C131.618 261.571 131.641 261.628 131.621 261.677C131.605 261.714 131.569 261.737 131.532 261.737Z" fill="#052E1C"/>
<path d="M130.412 236.5C130.359 236.5 130.315 236.456 130.315 236.403V206.217H66.9331C66.8796 206.217 66.8363 206.174 66.8363 206.12C66.8363 206.067 66.8796 206.023 66.9331 206.023H130.412C130.465 206.023 130.509 206.067 130.509 206.12V236.403C130.509 236.456 130.465 236.5 130.412 236.5Z" fill="#052E1C"/>
</svg>
